<svg xmlns="http://www.w3.org/2000/svg" fill-rule="evenodd" image-rendering="optimizeQuality" shape-rendering="geometricPrecision" viewBox="0 0 1023 1023" xmlns:v="https://vecta.io/nano"><path d="M-.5-.5h1023v1023H-.5V-.5z" fill="#fefefe"/><path d="M559.5 163.5c-17.357-.262-34.69.071-52 1 1.109-.79 2.442-1.29 4-1.5 16.172-.828 32.172-.661 48 .5z" fill="#7e7e7e"/><path d="M559.5 163.5c.418.722 1.084 1.222 2 1.5 5.955 1.072 11.955 1.572 18 1.5a514.74 514.74 0 0 0 26 5 20.69 20.69 0 0 1 5 1c2.003 2.482 4.669 3.482 8 3 3.268 3.207 7.268 4.873 12 5 2.053-.098 3.72.569 5 2 3.879 3.107 8.212 5.441 13 7 2.284.475 4.284 1.475 6 3 .975 1.693 2.308 3.193 4 4.5a245.23 245.23 0 0 1 12 5.5c4.909 2.574 9.242 5.908 13 10 .394 2.21 1.727 3.543 4 4h1c1 3 3 5 6 6a8.43 8.43 0 0 0 .5 4c2.4 1.915 4.9 3.581 7.5 5a42.47 42.47 0 0 0 1.5 5c4.245 3.434 8.078 7.1 11.5 11l6 9c.783 4.899 3.117 8.899 7 12 1.853 6.04 4.52 11.707 8 17 .252 3.827 1.585 7.16 4 10-.162 2.027.005 4.027.5 6 1.645 5.583 3.812 10.916 6.5 16 .845 1.171 1.511 2.505 2 4v2c-5.12.56-9.454 2.727-13 6.5-4.532 5.362-9.199 10.528-14 15.5-.35-6.895-1.35-13.562-3-20a277 277 0 0 0-8-42 558.25 558.25 0 0 0-5.5-25c-2.634-5.772-6.134-10.939-10.5-15.5-2.643-1.436-5.31-1.602-8-.5-6.675 12.669-16.675 16.336-30 11 0-.667-.333-1-1-1-6.337-9.848-14.004-18.681-23-26.5-6.35-5.607-13.016-5.94-20-1-8.507 5.419-16.84 11.086-25 17-19.875 6.345-29.375-.822-28.5-21.5 8.944-11.726 20.444-19.893 34.5-24.5l-7-3c-18.614-2.827-37.281-4.994-56-6.5-15.493-1.737-31.16-2.07-47-1l17 16a72.11 72.11 0 0 1 16.5 21c4.063 14.242-1.103 22.242-15.5 24-3.437-.052-6.437-1.219-9-3.5-8.014-8.747-15.681-17.747-23-27-2.597-2.646-5.763-4.146-9.5-4.5-3.063 1.381-5.896 3.214-8.5 5.5l-24 24-10 6c-9.683 3.23-15.85.064-18.5-9.5-.747-3.424-.58-6.757.5-10 1.911-.074 3.078-1.074 3.5-3 .497-2.31.663-4.643.5-7 2.427-.023 4.76-.523 7-1.5l10-10.5a71.94 71.94 0 0 1 11-9c4.639-1.382 7.472-4.382 8.5-9 2.352-1.53 4.519-3.197 6.5-5 8.21-2.77 16.21-6.103 24-10 4.761.376 9.095-.624 13-3 8.012-.534 15.679-2.201 23-5 17.31-.929 34.643-1.262 52-1z" fill="#0b0a0b"/><path d="M559.5 163.5c6.863.572 13.53 1.572 20 3-6.045.072-12.045-.428-18-1.5-.916-.278-1.582-.778-2-1.5z" fill="#555"/><path d="m507.5 164.5c-7.321 2.799-14.988 4.466-23 5 7.436-2.189 15.103-3.856 23-5z" fill="#747474"/><path d="M579.5 166.5c6.77-.214 13.437.453 20 2l6 3a514.74 514.74 0 0 1-26-5z" fill="#505050"/><path d="M599.5 168.5c4.665.557 8.998 1.89 13 4h-2a20.69 20.69 0 0 0-5-1l-6-3z" fill="#bbb"/><path d="M484.5 169.5c-3.905 2.376-8.239 3.376-13 3a156.12 156.12 0 0 1 13-3z" fill="#8e8e8e"/><path d="M610.5 172.5h2c2.387.412 4.387 1.412 6 3-3.331.482-5.997-.518-8-3z" fill="#616161"/><path d="M471.5 172.5c-7.79 3.897-15.79 7.23-24 10 1.486-2.119 3.486-3.619 6-4.5a80.24 80.24 0 0 1 18-5.5z" fill="#646465"/><path d="M618.5 175.5c4.389.903 8.389 2.569 12 5-4.732-.127-8.732-1.793-12-5z" fill="#505050"/><path d="M531.5 186.5a726.36 726.36 0 0 0-41 1c1.822 1.51 3.822 2.843 6 4a129.73 129.73 0 0 1 6 8.5c-.556.383-.889.883-1 1.5l-17-16c15.84-1.07 31.507-.737 47 1z" fill="#e3c0ab"/><path d="M635.5 182.5a8.43 8.43 0 0 1 4 .5l9 6.5c-4.788-1.559-9.121-3.893-13-7z" fill="#4f4f50"/><path d="M531.5 186.5c18.719 1.506 37.386 3.673 56 6.5l7 3c-14.056 4.607-25.556 12.774-34.5 24.5-.875 20.678 8.625 27.845 28.5 21.5 8.16-5.914 16.493-11.581 25-17 6.984-4.94 13.65-4.607 20 1 8.996 7.819 16.663 16.652 23 26.5-32.776-15.676-61.276-10.009-85.5 17-4.507 6.014-7.673 12.681-9.5 20l1 2a183.07 183.07 0 0 1 17.5-26c8.995-9.915 20.161-15.748 33.5-17.5 14.038-2.604 27.038-.271 39 7 9.194 6.527 17.027 14.361 23.5 23.5 4.286 8.183 8.119 16.517 11.5 25 1.412-5.685.579-11.018-2.5-16-5.419-8.507-11.086-16.84-17-25-2.593-3.043-5.76-5.21-9.5-6.5-.752-.671-1.086-1.504-1-2.5 13.325 5.336 23.325 1.669 30-11 2.69-1.102 5.357-.936 8 .5 4.366 4.561 7.866 9.728 10.5 15.5a558.25 558.25 0 0 1 5.5 25c1.169 12.022 2.669 24.022 4.5 36a213.6 213.6 0 0 1-.5 33c-1.122 1.552-1.622 3.218-1.5 5 2.692-4.177 5.525-8.177 8.5-12 4.801-4.972 9.468-10.138 14-15.5 3.546-3.773 7.88-5.94 13-6.5 7.018.007 13.018 2.507 18 7.5 15.682 18.181 24.682 39.347 27 63.5a63.82 63.82 0 0 1-4 19c-1.467-2.758-2.133-2.425-2 1-3.388-.665-4.388.335-3 3-.592 3.336-2.592 5.169-6 5.5a23.65 23.65 0 0 0-3 3.5c-10.495 3.467-21.162 3.8-32 1-3.129-1.522-6.463-2.355-10-2.5l-1-1 3-1c-5.846-.313-11.512-1.146-17-2.5-9.349-2.826-17.349-.659-24 6.5l-13 1c-2.514.881-4.514 2.381-6 4.5-2.357-.163-4.69.003-7 .5-2.039 2.374-4.372 4.374-7 6l-15 1c-4.462 6.231-10.462 9.231-18 9-7.562 4.939-15.896 7.939-25 9l-38 14c-21.581 4.395-42.914 9.729-64 16-13.915 1.564-27.582 4.23-41 8-23.258 2.897-46.258 1.563-69-4a456.12 456.12 0 0 1-38-14c-6.831-5.334-13.498-10.834-20-16.5-3.894-4.108-7.561-8.441-11-13a82.77 82.77 0 0 1-8.5-15c-3.084-9.153-5.251-18.486-6.5-28-.112-19.558 5.055-37.558 15.5-54l9.5-13c4.491-3.991 8.824-8.157 13-12.5 2.565-2.08 5.232-3.913 8-5.5 4.485-.825 8.319-2.825 11.5-6 8.273-.553 14.606-4.22 19-11l1-37c.638-7.489 1.804-14.823 3.5-22 3.028-7.721 6.861-15.054 11.5-22 .718-.951 1.551-1.117 2.5-.5-1.139 1.78-2.139 3.614-3 5.5-1.08 3.243-1.247 6.576-.5 10 2.65 9.564 8.817 12.73 18.5 9.5l10-6 24-24c2.604-2.286 5.437-4.119 8.5-5.5 3.737.354 6.903 1.854 9.5 4.5 7.319 9.253 14.986 18.253 23 27 2.563 2.281 5.563 3.448 9 3.5 14.397-1.758 19.563-9.758 15.5-24a72.11 72.11 0 0 0-16.5-21c.111-.617.444-1.117 1-1.5a129.73 129.73 0 0 0-6-8.5c-2.178-1.157-4.178-2.49-6-4a726.36 726.36 0 0 1 41-1z" fill="#f7c6a9"/><path d="m447.5 182.5c-1.981 1.803-4.148 3.47-6.5 5-1.028 4.618-3.861 7.618-8.5 9 2.14-2.561 4.473-4.895 7-7l-2-2c2.483-3.241 5.816-4.908 10-5z" fill="#4c4c4c"/><path d="M439.5 189.5c-2.527 2.105-4.86 4.439-7 7a71.94 71.94 0 0 0-11 9c-4.945 2.945-9.612 6.279-14 10 7.595-9.506 16.595-17.673 27-24.5 1.525-1.009 3.192-1.509 5-1.5z" fill="#d1d1d1"/><path d="M654.5 192.5c6.116 2.123 11.449 5.456 16 10a245.23 245.23 0 0 0-12-5.5c-1.692-1.307-3.025-2.807-4-4.5z" fill="#444445"/><path d="M437.5 187.5l2 2c-1.808-.009-3.475.491-5 1.5-10.405 6.827-19.405 14.994-27 24.5-1.068.934-2.401 1.268-4 1 5.864-7.017 12.198-13.684 19-20a86.4 86.4 0 0 0 10-7.5c1.525-1.009 3.192-1.509 5-1.5z" fill="#8a8a8a"/><path d="M683.5 212.5c2.273.457 3.606 1.79 4 4-2.273-.457-3.606-1.79-4-4z" fill="#535353"/><path d="m688.5 216.5c2.333 1.667 4.333 3.667 6 6-3-1-5-3-6-6z" fill="#79797b"/><path d="M694.5 222.5l8 9c-2.6-1.419-5.1-3.085-7.5-5a8.43 8.43 0 0 1-.5-4z" fill="#434344"/><path d="M702.5 231.5c1.221.528 2.387 1.195 3.5 2 3.384 4.545 6.55 9.211 9.5 14-3.422-3.9-7.255-7.566-11.5-11a42.47 42.47 0 0 1-1.5-5z" fill="#484848"/><path d="M421.5 205.5l-10 10.5c-2.24.977-4.573 1.477-7 1.5.163 2.357-.003 4.69-.5 7-.422 1.926-1.589 2.926-3.5 3 .861-1.886 1.861-3.72 3-5.5-.949-.617-1.782-.451-2.5.5-4.639 6.946-8.472 14.279-11.5 22-4.352 9.751-6.352 20.084-6 31-.722.418-1.222 1.084-1.5 2-.499-5.323-.666-10.656-.5-16 1.156-4.293 2.156-8.626 3-13 2.323-2.635 4.156-5.635 5.5-9a8.43 8.43 0 0 0 .5-4c3.169-7.162 7.502-13.495 13-19 1.599.268 2.932-.066 4-1 4.388-3.721 9.055-7.055 14-10z" fill="#453d39"/><path d="M390.5 235.5a8.43 8.43 0 0 1-.5 4c-1.344 3.365-3.177 6.365-5.5 9 1.233-4.793 3.233-9.126 6-13z" fill="#646461"/><path d="M656.5 252.5c.667 0 1 .333 1 1-.086.996.248 1.829 1 2.5 3.74 1.29 6.907 3.457 9.5 6.5 5.914 8.16 11.581 16.493 17 25 3.079 4.982 3.912 10.315 2.5 16-3.381-8.483-7.214-16.817-11.5-25-6.473-9.139-14.306-16.973-23.5-23.5-11.962-7.271-24.962-9.604-39-7-13.339 1.752-24.505 7.585-33.5 17.5a183.07 183.07 0 0 0-17.5 26l-1-2c1.827-7.319 4.993-13.986 9.5-20 24.224-27.009 52.724-32.676 85.5-17z" fill="#461613"/><path d="M314.5 268.5c-6.06 4.777-9.56 11.11-10.5 19-1.277 2.247-2.777 4.247-4.5 6-1.052-1.756-2.719-2.423-5-2-5.707-12.251-13.04-23.417-22-33.5-1.284-.684-2.451-.517-3.5.5-.747 3.424-.58 6.757.5 10-.624.417-.957 1.084-1 2a87.72 87.72 0 0 1 2 13c-1.364-6.776-3.364-13.443-6-20 1.061-5.152 4.061-7.985 9-8.5l8.5 8.5a545.68 545.68 0 0 0 16 27c3.835-5.513 6.501-11.513 8-18a12.14 12.14 0 0 0 3.5-4.5c1.887-.78 3.554-.613 5 .5z" fill="#6f514d"/><path d="m721.5 256.5c3.156 3.496 5.489 7.496 7 12-3.883-3.101-6.217-7.101-7-12z" fill="#585859"/><path d="M458.5 242.5c6.741-.329 13.408.171 20 1.5 19.745 8.077 32.911 22.244 39.5 42.5a12.49 12.49 0 0 1 0 7c-3.237-6.032-5.904-12.365-8-19a159.04 159.04 0 0 0-13.5-16.5c-8.758-7.214-18.758-11.381-30-12.5a126.86 126.86 0 0 0-30 6.5l-14 10-11.5 13.5c-3.378 6.584-5.378 13.584-6 21-.576 2.624-1.91 3.291-4 2-.794-5.522-.127-10.855 2-16 6.345-11.68 14.845-21.513 25.5-29.5 9.54-5.045 19.54-8.545 30-10.5z" fill="#471814"/><path d="m728.5 268.5c3.993 4.989 6.66 10.656 8 17-3.48-5.293-6.147-10.96-8-17z" fill="#5b5b5c"/><path d="M502.5 291.5c2.962 3.464 6.129 6.797 9.5 10 6.113 7.739 8.947 16.573 8.5 26.5.027 17.296-6.973 30.963-21 41-6.632 2.819-13.298 5.319-20 7.5-21.062 2.905-39.728-2.262-56-15.5-8.789-12.222-11.289-25.722-7.5-40.5 8.547-19.547 23.047-32.38 43.5-38.5a121.19 121.19 0 0 1 22 0c7.28 2.641 14.28 5.808 21 9.5zm137 10c5.393 5.59 8.893 12.256 10.5 20 4.786 26.845-5.714 44.345-31.5 52.5-11.333.667-22.667.667-34 0a73.67 73.67 0 0 1-19-6c-5.928-5.924-11.094-12.424-15.5-19.5-2.426-21.731 4.408-39.898 20.5-54.5 4.477-2.323 8.81-4.823 13-7.5 4.053-.513 8.053-1.346 12-2.5a42.48 42.48 0 0 1 13 0c4.435 2.026 9.102 3.526 14 4.5 5.626 2.965 10.293 6.965 14 12 .825.886 1.825 1.219 3 1z" fill="#0c0b0c"/><path d="M639.5 301.5c-1.175.219-2.175-.114-3-1-3.707-5.035-8.374-9.035-14-12-4.898-.974-9.565-2.474-14-4.5a42.48 42.48 0 0 0-13 0c-3.947 1.154-7.947 1.987-12 2.5 2.897-2.278 6.23-3.778 10-4.5 11.944-.878 23.277 1.456 34 7 4.54 3.706 8.54 7.872 12 12.5z" fill="#261c18"/><path d="M315.5 277.5l-3.5 31c-.278.916-.778 1.582-1.5 2 .284-1.915-.049-3.581-1-5a164.77 164.77 0 0 0 5.5-35c.497 2.31.663 4.643.5 7z" fill="#8d746e"/><path d="m736.5 285.5c2.415 2.84 3.748 6.173 4 10-2.415-2.84-3.748-6.173-4-10z" fill="#676768"/><path d="M381.5 261.5c-.166 5.344.001 10.677.5 16 .278-.916.778-1.582 1.5-2 .327 9.515-.006 18.848-1 28a242.43 242.43 0 0 0-.5-22c-.608 1.566-1.442 2.9-2.5 4-.177-8.216.49-16.216 2-24z" fill="#80746e"/><path d="M269.5 268.5c1.703 5.481 3.203 11.148 4.5 17 .784 3.26.617 6.427-.5 9.5-1.667.667-3.333.667-5 0a193.62 193.62 0 0 1-24-11c-2.982-.498-5.982-.665-9-.5a32.46 32.46 0 0 0 .5 8c5.395 5.564 10.895 10.897 16.5 16-.872 1.112-.872 2.446 0 4-.247 1.213-.914 1.88-2 2v-1c1.025-.397 1.192-1.063.5-2-3.251-3.922-7.084-7.088-11.5-9.5-5.719-4.589-8.219-10.423-7.5-17.5l1.5-1.5c4.667-.667 9.333-.667 14 0 5.825 2.745 11.492 5.745 17 9 2.31.497 4.643.663 7 .5a41.54 41.54 0 0 0-1-8 87.72 87.72 0 0 0-2-13c.043-.916.376-1.583 1-2z" fill="#4a413c"/><path d="M294.5 291.5c.162 2.027-.005 4.027-.5 6-2.409 1.809-3.409 4.142-3 7 3.049-3.543 5.882-7.209 8.5-11 1.723-1.753 3.223-3.753 4.5-6 .94-7.89 4.44-14.223 10.5-19 .617.111 1.117.444 1.5 1 .801 2.867.634 5.534-.5 8 .163-2.357-.003-4.69-.5-7a164.77 164.77 0 0 1-5.5 35c-1.672 6.231-2.172 12.565-1.5 19a54.7 54.7 0 0 0 5.5 4 190.4 190.4 0 0 1 13 10.5c.752.671 1.086 1.504 1 2.5l-13.5 23-8 30-1 1c-2.771-5.208-5.271-10.542-7.5-16-3.276-9.83-5.943-19.83-8-30a18.67 18.67 0 0 0 3-5l-1.5-1c-3.576 1.208-7.076 2.541-10.5 4h-13c-19.213 5.119-21.38 1.786-6.5-10 1.379-3.975.213-6.809-3.5-8.5-7.945-.71-15.611-2.376-23-5a14.97 14.97 0 0 1-3-3.5c2.491-1.912 5.158-3.246 8-4 5.526.321 10.86-.012 16-1 1.175.219 2.175-.114 3-1-1.308-2.964-3.308-5.297-6-7-5.605-5.103-11.105-10.436-16.5-16a32.46 32.46 0 0 1-.5-8c3.018-.165 6.018.002 9 .5a193.62 193.62 0 0 0 24 11c1.667.667 3.333.667 5 0 1.117-3.073 1.284-6.24.5-9.5-1.297-5.852-2.797-11.519-4.5-17-1.08-3.243-1.247-6.576-.5-10 1.049-1.017 2.216-1.184 3.5-.5 8.96 10.083 16.293 21.249 22 33.5z" fill="#f6c6a9"/><path d="M382.5 303.5c.085 1.495-.581 2.495-2 3-.989-3.607-1.323-7.274-1-11v-10c1.058-1.1 1.892-2.434 2.5-4a242.43 242.43 0 0 1 .5 22z" fill="#4e4844"/><path d="M294.5 291.5c2.281-.423 3.948.244 5 2-2.618 3.791-5.451 7.457-8.5 11-.409-2.858.591-5.191 3-7 .495-1.973.662-3.973.5-6z" fill="#501d18"/><path d="M309.5 305.5c.951 1.419 1.284 3.085 1 5v4c-2.248 5.423-.914 9.756 4 13 0 .667-.333 1-1 1a54.7 54.7 0 0 1-5.5-4c-.672-6.435-.172-12.769 1.5-19z" fill="#5e3b33"/><path d="M471.5 308.5c21.162 1.633 26.329 11.633 15.5 30a69.2 69.2 0 0 1-6.5 4.5c-6.918 1.551-13.918 1.884-21 1-7.603-4.395-10.103-10.895-7.5-19.5 4.604-7.855 11.104-13.188 19.5-16z" fill="#f7f7f7"/><path d="M740.5 295.5c3.91 6.735 6.244 14.068 7 22-2.688-5.084-4.855-10.417-6.5-16-.495-1.973-.662-3.973-.5-6z" fill="#535353"/><path d="M591.5 310.5c17.879-2.621 25.712 5.045 23.5 23-1.902 4.9-5.402 8.067-10.5 9.5-9.51 3.488-17.677 1.655-24.5-5.5-1.864-7.93-.197-14.93 5-21 2.664-1.498 4.83-3.498 6.5-6z" fill="#f8f8f8"/><path d="M252.5 307.5c2.692 1.703 4.692 4.036 6 7-.825.886-1.825 1.219-3 1a112.97 112.97 0 0 1-15-.5c2.536-.186 4.869-.686 7-1.5h3c1.086-.12 1.753-.787 2-2-.872-1.554-.872-2.888 0-4z" fill="#28211c"/><path d="M247.5 313.5c-2.131.814-4.464 1.314-7 1.5a112.97 112.97 0 0 0 15 .5c-5.14.988-10.474 1.321-16 1-1.274-.689-1.274-1.523 0-2.5a32.46 32.46 0 0 1 8-.5z" fill="#96837b"/><path d="M389.5 244.5c-1.696 7.177-2.862 14.511-3.5 22l-1 37c-4.394 6.78-10.727 10.447-19 11-3.181 3.175-7.015 5.175-11.5 6 6.049-5.362 13.049-9.195 21-11.5a8.43 8.43 0 0 0-4-.5c2.107-.968 4.441-1.302 7-1-.317-4.202.017-8.202 1-12-.323 3.726.011 7.393 1 11 1.419-.505 2.085-1.505 2-3 .994-9.152 1.327-18.485 1-28-.352-10.916 1.648-21.249 6-31z" fill="#e8c6b1"/><path d="M310.5 314.5a32.46 32.46 0 0 0 .5 8c1.802 1.289 2.969 2.956 3.5 5-4.914-3.244-6.248-7.577-4-13z" fill="#968181"/><path d="M711.5 283.5a277 277 0 0 1 8 42c.166 7.008 0 14.008-.5 21-1.082 2.118-2.249 4.118-3.5 6a213.6 213.6 0 0 0 .5-33c-1.831-11.978-3.331-23.978-4.5-36z" fill="#ddbba7"/><path d="M233.5 326.5c-1.238.31-1.238.81 0 1.5 4.204 1.231 8.204 2.731 12 4.5-5.04-.423-9.707-1.756-14-4 .086-.996-.248-1.829-1-2.5 1.249-.74 2.249-.573 3 .5z" fill="#706e6b"/><path d="M233.5 326.5l25.5 6c.52 1.789.187 3.456-1 5-3.367 3.703-7.034 7.036-11 10-1.993 2.318-3.159 4.984-3.5 8 5.668-.084 11.001-1.417 16-4 1.052-.149 2.052.017 3 .5-6.595 4.981-13.928 6.481-22 4.5a8.43 8.43 0 0 1 .5-4c3.336-4.168 6.836-8.168 10.5-12l4-6-10-2c-3.796-1.769-7.796-3.269-12-4.5-1.238-.69-1.238-1.19 0-1.5z" fill="#2f2723"/><path d="M719.5 325.5c1.65 6.438 2.65 13.105 3 20-2.975 3.823-5.808 7.823-8.5 12-.122-1.782.378-3.448 1.5-5 1.251-1.882 2.418-3.882 3.5-6 .5-6.992.666-13.992.5-21z" fill="#3d312a"/><path d="M371.5 308.5a8.43 8.43 0 0 1 4 .5c-7.951 2.305-14.951 6.138-21 11.5-2.768 1.587-5.435 3.42-8 5.5-4.176 4.343-8.509 8.509-13 12.5-2.441.25-4.441 1.25-6 3 .086-.996-.248-1.829-1-2.5a190.4 190.4 0 0 0-13-10.5c.667 0 1-.333 1-1l13 9.5c1.333.667 2.667.667 4 0 10.013-9.334 20.68-18 32-26a57.83 57.83 0 0 0 8-2.5z" fill="#665b54"/><path d="M289.5 349.5c-.722.418-1.222 1.084-1.5 2-2.255-1.999-4.755-3.332-7.5-4 3.424-1.459 6.924-2.792 10.5-4l1.5 1a18.67 18.67 0 0 1-3 5z" fill="#292019"/><path d="M267.5 347.5h13c2.745.668 5.245 2.001 7.5 4 .278-.916.778-1.582 1.5-2 2.057 10.17 4.724 20.17 8 30-.597.235-.93.735-1 1.5 1.162 3.147 2.162 6.314 3 9.5-1.29-.558-2.123-1.558-2.5-3-2.95-12.348-6.784-24.348-11.5-36a48.73 48.73 0 0 0-17-.5l-16 8c-3.333.667-6.667.667-10 0-.881-.708-1.547-1.542-2-2.5 8.072 1.981 15.405.481 22-4.5-.948-.483-1.948-.649-3-.5 3.069-.485 5.736-1.819 8-4z" fill="#655d58"/><path d="M502.5 291.5c6.126.793 10.126 4.126 12 10 .774 1.211 1.607 1.211 2.5 0 1.264 3.29 2.43 6.624 3.5 10a254.02 254.02 0 0 1 .5 39c-2.389.817-4.222 2.817-5.5 6-2.332 3.398-5.165 6.398-8.5 9-.483.948-.649 1.948-.5 3-6.7.683-12.7 3.183-18 7.5-2.982.498-5.982.665-9 .5 6.702-2.181 13.368-4.681 20-7.5 14.027-10.037 21.027-23.704 21-41 .447-9.927-2.387-18.761-8.5-26.5-3.371-3.203-6.538-6.536-9.5-10z" fill="#e8c2ab"/><path d="M250.5 312.5v1h-3a32.46 32.46 0 0 0-8 .5c-1.274.977-1.274 1.811 0 2.5-2.842.754-5.509 2.088-8 4a14.97 14.97 0 0 0 3 3.5c7.389 2.624 15.055 4.29 23 5 3.713 1.691 4.879 4.525 3.5 8.5-14.88 11.786-12.713 15.119 6.5 10-2.264 2.181-4.931 3.515-8 4-4.999 2.583-10.332 3.916-16 4 .341-3.016 1.507-5.682 3.5-8 3.966-2.964 7.633-6.297 11-10 1.187-1.544 1.52-3.211 1-5l-25.5-6c-.751-1.073-1.751-1.24-3-.5.752.671 1.086 1.504 1 2.5-4.785-2.769-5.785-6.436-3-11a59.29 59.29 0 0 0 10-4.5c3.986-.499 7.986-.666 12-.5z" fill="#e5c4af"/><path d="M251.5 340.5c-3.664 3.832-7.164 7.832-10.5 12a8.43 8.43 0 0 0-.5 4c-1.113-1.446-1.28-3.113-.5-5 3.064-4.566 6.898-8.233 11.5-11z" fill="#636360"/><path d="M333.5 338.5l-9.5 13c-10.445 16.442-15.612 34.442-15.5 54h-3c-2.299-4.924-4.299-9.924-6-15-.838-3.186-1.838-6.353-3-9.5.07-.765.403-1.265 1-1.5 2.229 5.458 4.729 10.792 7.5 16l1-1 8-30 13.5-23c1.559-1.75 3.559-2.75 6-3z" fill="#382a21"/><path d="M719.5 420.5c6.743 3.112 13.743 5.779 21 8-1.068.934-2.401 1.268-4 1-2.027.162-4.027-.005-6-.5-6.44-3.11-13.106-5.61-20-7.5-5.287 2.311-10.287 5.144-15 8.5-4.029-.869-8.029-.535-12 1a25.14 25.14 0 0 0-4 4.5h-1c-2.82.252-5.486-.248-8-1.5 2.208-.191 4.208-.691 6-1.5 1.486-2.119 3.486-3.619 6-4.5l13-1c6.651-7.159 14.651-9.326 24-6.5z" fill="#322a26"/><path d="M790.5 413.5c-4.036 10.037-11.37 16.037-22 18-6.045.197-12.045-.137-18-1-3.225-.737-6.559-1.403-10-2-7.257-2.221-14.257-4.888-21-8 5.488 1.354 11.154 2.187 17 2.5l-3 1 1 1c3.537.145 6.871.978 10 2.5 10.838 2.8 21.505 2.467 32-1a23.65 23.65 0 0 1 3-3.5c3.408-.331 5.408-2.164 6-5.5-1.388-2.665-.388-3.665 3-3-.133-3.425.533-3.758 2-1z" fill="#e2bfaa"/><path d="M305.5 405.5h3c1.249 9.514 3.416 18.847 6.5 28a82.77 82.77 0 0 0 8.5 15c-.838.342-1.172 1.008-1 2-2.296-1.901-4.129-4.234-5.5-7a108.34 108.34 0 0 0-7-15c-1.83-7.651-3.33-15.317-4.5-23z" fill="#544a43"/><path d="M749.5 321.5c4.949-.541 9.616.292 14 2.5 6.446 5.112 12.279 10.946 17.5 17.5 5.854 12.702 10.854 25.702 15 39a144.18 144.18 0 0 1 0 24c-1.88 9.666-6.38 17.832-13.5 24.5-13.238 6.152-26.905 7.152-41 3-1.991-.374-3.658-1.207-5-2.5 1.599.268 2.932-.066 4-1 3.441.597 6.775 1.263 10 2-3.949.193-3.949.693 0 1.5a56.25 56.25 0 0 0 17 1c.556-.383.889-.883 1-1.5 10.63-1.963 17.964-7.963 22-18a63.82 63.82 0 0 0 4-19c-2.318-24.153-11.318-45.319-27-63.5-4.982-4.993-10.982-7.493-18-7.5v-2z" fill="#574f4a"/><path d="M750.5 430.5c5.955.863 11.955 1.197 18 1-.111.617-.444 1.117-1 1.5a56.25 56.25 0 0 1-17-1c-3.949-.807-3.949-1.307 0-1.5z" fill="#342923"/><path d="M735.5 437.5c-11.338-.167-22.672 0-34 .5-.744 1.039-1.744 1.539-3 1.5.86-2.114 2.527-3.28 5-3.5a196.15 196.15 0 0 1 28 0c1.558.21 2.891.71 4 1.5z" fill="#5b141d"/><path d="M735.5 437.5a28.87 28.87 0 0 1 6.5 9l1 17c.725 3.29 1.892 6.29 3.5 9v1a51.57 51.57 0 0 0 1 7c2.42 9.261 5.42 18.261 9 27-4.953-5.905-8.286-12.572-10-20a32.46 32.46 0 0 0-.5-8c-1.85-4.546-3.517-9.213-5-14-.336-8.225-1.503-16.225-3.5-24-2.283-.108-4.283-.941-6-2.5-9.667-.667-19.333-.667-29 0-3.517 1.977-7.351 2.811-11.5 2.5-2.929-.025-5.429-.691-7.5-2 1.599.268 2.932-.066 4-1a72.03 72.03 0 0 0 11 1c1.256.039 2.256-.461 3-1.5 11.328-.5 22.662-.667 34-.5z" fill="#a72339"/><path d="M678.5 435.5h1c2.216 1.732 4.882 2.732 8 3-1.068.934-2.401 1.268-4 1-2.198-.375-4.198-1.042-6-2 .838-.342 1.172-1.008 1-2z" fill="#c07f86"/><path d="M677.5 437.5c1.802.958 3.802 1.625 6 2 2.071 1.309 4.571 1.975 7.5 2 4.149.311 7.983-.523 11.5-2.5 9.667-.667 19.333-.667 29 0 1.717 1.559 3.717 2.392 6 2.5 1.997 7.775 3.164 15.775 3.5 24 1.483 4.787 3.15 9.454 5 14a32.46 32.46 0 0 1 .5 8c-1.29-.558-2.123-1.558-2.5-3l-1-7c-2.554-2.86-4.221-6.193-5-10a219.32 219.32 0 0 1-2-20c-.392-2.955-1.892-5.122-4.5-6.5a144.18 144.18 0 0 0-24 0c-4.772 1.992-9.772 2.826-15 2.5a84.23 84.23 0 0 1-19-3l-5 .5c-.971 1.481-2.304 2.315-4 2.5l4-5c2.787-.977 5.787-1.31 9-1z" fill="#da193d"/><path d="M746.5 487.5c1.714 7.428 5.047 14.095 10 20v4a369.75 369.75 0 0 1 7.5 20c.667 1.667.667 3.333 0 5l-15.5 2a154.34 154.34 0 0 0-21 10.5c-3.297.204-6.297 1.037-9 2.5-1.459-.067-2.792.266-4 1a1414.62 1414.62 0 0 0-46 10.5 449.63 449.63 0 0 1-1.5-29.5c-.232-1.237-.732-2.237-1.5-3l-2-1c-1.602-1.574-3.602-2.241-6-2h-4l-.5 43 5 7a12.93 12.93 0 0 1 .5 5c3.461.611 6.128-.556 8-3.5.948-.483 1.948-.649 3-.5-.14-1.624.527-2.79 2-3.5 5.901-1.763 11.901-2.429 18-2 1.393 1.171 2.227 2.671 2.5 4.5a166.73 166.73 0 0 1 2 35c-.905 6.242-3.905 11.242-9 15-.497 2.31-.663 4.643-.5 7-18.662-2.09-37.329-2.257-56-.5-2.639 1.946-5.639 2.946-9 3-6.544 6.608-14.211 8.441-23 5.5a10.94 10.94 0 0 0-4.5 3c-.617.949-.451 1.782.5 2.5-3.928 1.325-7.928 1.658-12 1a59.26 59.26 0 0 0-13-6.5c-1.53-.711-2.863-1.711-4-3-.444-1.613-1.444-2.78-3-3.5-4.491-.145-8.824-.979-13-2.5a120.38 120.38 0 0 0-17 4c-7.608 3.925-15.608 6.758-24 8.5-5.619 1.299-11.286 1.632-17 1l-13-5c-1.14-1.973-2.473-3.807-4-5.5-5.152-1.314-10.152-1.314-15 0a284.97 284.97 0 0 0-18 6c-5.427-.303-10.427 1.031-15 4-2.445-1.465-4.445-.965-6 1.5-9.667.667-19.333.667-29 0-5.006-.1-7.839-2.6-8.5-7.5-.667-11-.667-22 0-33 2.159-9.248 3.992-18.582 5.5-28-.404-5.283.262-10.283 2-15a253.53 253.53 0 0 0 9-22c2.017-.945 2.35-2.445 1-4.5a262.4 262.4 0 0 1 6-24.5c.16-1.855-.507-3.188-2-4-5.259.516-7.592 3.516-7 9l-1 2c-1.768 2.008-3.434 4.174-5 6.5-1.333.667-2.667.667-4 0a13.92 13.92 0 0 0-3-4c-5.286-1.641-9.953-4.308-14-8a38.85 38.85 0 0 1-7-1.5c-3.008-4.061-7.008-6.561-12-7.5l-16-12a8.43 8.43 0 0 0-4-.5c-1.66-1.822-2.66-3.989-3-6.5l7-17c1-.667 2-.667 3 0 4.538 5.753 10.205 9.586 17 11.5 3.689 6.512 9.356 9.345 17 8.5 2.947 3.014 6.613 4.348 11 4 8.719 3.597 17.719 5.763 27 6.5h4c2.098 1.435 4.431 2.602 7 3.5a484.01 484.01 0 0 0 44 0 281.52 281.52 0 0 1 43-8c5.763-2.248 11.096-5.081 16-8.5a173.55 173.55 0 0 1 4-3 294.3 294.3 0 0 0 16-3 193.72 193.72 0 0 0 19-3c3.018.165 6.018-.002 9-.5 8.639-3.807 17.305-7.307 26-10.5 3.69-1.788 7.357-3.455 11-5 5.22-.607 10.22-1.941 15-4 6.111-2.536 12.444-4.37 19-5.5l9-7c4.958-.029 9.624-.862 14-2.5 1.696-.185 3.029-1.019 4-2.5l5-.5a84.23 84.23 0 0 0 19 3c5.228.326 10.228-.508 15-2.5a144.18 144.18 0 0 1 24 0c2.608 1.378 4.108 3.545 4.5 6.5a219.32 219.32 0 0 0 2 20c.779 3.807 2.446 7.14 5 10l1 7c.377 1.442 1.21 2.442 2.5 3z" fill="#f70032"/><path d="M668.5 438.5l-4 5a57.15 57.15 0 0 0-15 1c-2.793 3.13-6.127 5.463-10 7 3.131-2.629 6.131-5.462 9-8.5a114.67 114.67 0 0 0 15-1.5c1.44-1.452 3.106-2.452 5-3z" fill="#a52138"/><path d="M664.5 443.5c-4.376 1.638-9.042 2.471-14 2.5l-9 7c-6.556 1.13-12.889 2.964-19 5.5.558-1.29 1.558-2.123 3-2.5 4.754-1.642 9.421-3.142 14-4.5 3.873-1.537 7.207-3.87 10-7a57.15 57.15 0 0 1 15-1z" fill="#d41b3d"/><path d="M735.5 437.5c4.858.354 7.692 3.021 8.5 8 .07 9.107.904 18.107 2.5 27-1.608-2.71-2.775-5.71-3.5-9l-1-17a28.87 28.87 0 0 0-6.5-9z" fill="#835a5c"/><path d="M323.5 448.5c3.439 4.559 7.106 8.892 11 13-.086.996.248 1.829 1 2.5a12.93 12.93 0 0 1-5 .5c0-.667-.333-1-1-1-1.072-3.13-2.906-5.796-5.5-8a42.47 42.47 0 0 1-1.5-5c-.172-.992.162-1.658 1-2z" fill="#322b29"/><path d="M639.5 451.5c-4.579 1.358-9.246 2.858-14 4.5-1.442.377-2.442 1.21-3 2.5-4.78 2.059-9.78 3.393-15 4-3.643 1.545-7.31 3.212-11 5a193.66 193.66 0 0 1-17 4c8.212-2.463 16.212-5.63 24-9.5 4.161-1.737 8.495-2.737 13-3 7.023-4.505 14.689-7.005 23-7.5z" fill="#b2233b"/><path d="M596.5 467.5c-8.695 3.193-17.361 6.693-26 10.5-2.982.498-5.982.665-9 .5 4.583-.23 8.583-1.896 12-5l6-2a193.66 193.66 0 0 0 17-4z" fill="#da1c3d"/><path d="M329.5 463.5c.667 0 1 .333 1 1 .19 3.532-.477 6.865-2 10a66.69 66.69 0 0 1-6 9c1.621-5.242 3.788-10.242 6.5-15a12.93 12.93 0 0 0 .5-5z" fill="#765354"/><path d="M573.5 473.5c-3.417 3.104-7.417 4.77-12 5a193.72 193.72 0 0 1-19 3 622.84 622.84 0 0 1 31-8z" fill="#ab2035"/><path d="M676.5 432.5c-1.792.809-3.792 1.309-6 1.5 2.514 1.252 5.18 1.752 8 1.5.172.992-.162 1.658-1 2-3.213-.31-6.213.023-9 1-1.894.548-3.56 1.548-5 3a114.67 114.67 0 0 1-15 1.5c-2.869 3.038-5.869 5.871-9 8.5-8.311.495-15.977 2.995-23 7.5-4.505.263-8.839 1.263-13 3-7.788 3.87-15.788 7.037-24 9.5l-6 2a622.84 622.84 0 0 0-31 8 294.3 294.3 0 0 1-16 3l-4 3h-5c-10.125.412-19.791 2.579-29 6.5a68.39 68.39 0 0 1-16 3c-.556.383-.889.883-1 1.5-4.034.005-8.034.338-12 1a940.78 940.78 0 0 1-55-1c-8.571-1.935-17.071-4.269-25.5-7-8.428-3.64-16.928-6.974-25.5-10-6.596-4.256-12.93-8.923-19-14-2.245 2.178-4.245 4.512-6 7 1.523-3.135 2.19-6.468 2-10a12.93 12.93 0 0 0 5-.5c-.752-.671-1.086-1.504-1-2.5 6.502 5.666 13.169 11.166 20 16.5a456.12 456.12 0 0 0 38 14c22.742 5.563 45.742 6.897 69 4 13.418-3.77 27.085-6.436 41-8 21.086-6.271 42.419-11.605 64-16l38-14c9.104-1.061 17.438-4.061 25-9 7.538.231 13.538-2.769 18-9l15-1c2.628-1.626 4.961-3.626 7-6 2.31-.497 4.643-.663 7-.5z" fill="#4b0d0e"/><path d="M457.5 480.5a4.85 4.85 0 0 1 4 1c-4.39 1.184-8.224 3.517-11.5 7 .021-5.066 2.521-7.733 7.5-8z" fill="#4c1c17"/><path d="M746.5 473.5c4.685 7.716 8.018 16.049 10 25-2.703-6.129-5.703-12.129-9-18a51.57 51.57 0 0 1-1-7z" fill="#816161"/><path d="M353.5 481.5c-6.795-1.914-12.462-5.747-17-11.5-1-.667-2-.667-3 0l-7 17c.34 2.511 1.34 4.678 3 6.5-4.683-1.71-6.183-5.043-4.5-10 .615-1.616 1.615-2.949 3-4a12.93 12.93 0 0 0 .5-5c1.755-2.488 3.755-4.822 6-7 6.07 5.077 12.404 9.744 19 14z" fill="#b12139"/><path d="M353.5 481.5c8.572 3.026 17.072 6.36 25.5 10 8.429 2.731 16.929 5.065 25.5 7l4 2c-9.281-.737-18.281-2.903-27-6.5-4.387.348-8.053-.986-11-4-7.644.845-13.311-1.988-17-8.5z" fill="#c7203e"/><path d="M517.5 487.5c-.111.617-.444 1.117-1 1.5a432.44 432.44 0 0 0-28 8l-17 1.5c.111-.617.444-1.117 1-1.5a68.39 68.39 0 0 0 16-3c9.209-3.921 18.875-6.088 29-6.5z" fill="#b82039"/><path d="M517.5 487.5h5c-4.904 3.419-10.237 6.252-16 8.5a281.52 281.52 0 0 0-43 8 484.01 484.01 0 0 1-44 0c-2.569-.898-4.902-2.065-7-3.5h5c1.452.802 3.118 1.302 5 1.5a342.33 342.33 0 0 0 37 0c4.258-.756 8.258-1.923 12-3.5l17-1.5a432.44 432.44 0 0 1 28-8c.556-.383.889-.883 1-1.5z" fill="#ea1038"/><path d="M747.5 480.5c3.297 5.871 6.297 11.871 9 18 4.733 7.468 8.399 15.468 11 24a51.57 51.57 0 0 0 1 7 218.9 218.9 0 0 0-8.5-18c-.949-1.593-2.115-2.926-3.5-4-3.58-8.739-6.58-17.739-9-27z" fill="#5f2426"/><path d="M404.5 498.5a940.78 940.78 0 0 0 55 1c-13.823.996-27.823 1.329-42 1h-5-4l-4-2z" fill="#932132"/><path d="M471.5 498.5c-3.742 1.577-7.742 2.744-12 3.5a342.33 342.33 0 0 1-37 0c-1.882-.198-3.548-.698-5-1.5 14.177.329 28.177-.004 42-1 3.966-.662 7.966-.995 12-1z" fill="#b7223d"/><path d="M329.5 493.5a8.43 8.43 0 0 1 4 .5l16 12c4.992.939 8.992 3.439 12 7.5a38.85 38.85 0 0 0 7 1.5c4.047 3.692 8.714 6.359 14 8a13.92 13.92 0 0 1 3 4c1.333.667 2.667.667 4 0 1.566-2.326 3.232-4.492 5-6.5a27.42 27.42 0 0 1-2 11c-2.827-.084-5.494-.75-8-2-17.705-10.031-35.038-20.864-52-32.5-1.21-1.039-2.21-2.206-3-3.5z" fill="#bc213b"/><path d="M328.5 474.5a12.93 12.93 0 0 1-.5 5c-1.385 1.051-2.385 2.384-3 4-1.683 4.957-.183 8.29 4.5 10 .79 1.294 1.79 2.461 3 3.5 16.962 11.636 34.295 22.469 52 32.5 1.589 1.806 3.589 3.139 6 4a9.86 9.86 0 0 1 1 6c.075 4.481-.592 8.814-2 13h-1-2c1.644-5.862 2.644-11.862 3-18a214.14 214.14 0 0 1-17-8.5c-9.499-6.251-19.166-12.251-29-18a70.93 70.93 0 0 0-17-11l-4.5-6.5c-.796-2.539-.629-4.872.5-7a66.69 66.69 0 0 0 6-9z" fill="#723b3d"/><path d="M391.5 539.5a9.86 9.86 0 0 0-1-6c-2.411-.861-4.411-2.194-6-4 2.506 1.25 5.173 1.916 8 2a27.42 27.42 0 0 0 2-11l1-2c1.433-2.019 2.767-4.186 4-6.5l1-.5 1 2.5c-3.168 8.633-6.502 17.133-10 25.5z" fill="#52020a"/><path d="M756.5 511.5c7.06 7.156 9.894 15.823 8.5 26-.75.626-1.584 1.126-2.5 1.5l-11 1c-7.972 3.059-15.639 6.559-23 10.5l-10 1c2.703-1.463 5.703-2.296 9-2.5a154.34 154.34 0 0 1 21-10.5l15.5-2c.667-1.667.667-3.333 0-5a369.75 369.75 0 0 0-7.5-20z" fill="#df1a40"/><path d="M767.5 522.5c.768.763 1.268 1.763 1.5 3 .667 4.667.667 9.333 0 14-1.857 2.7-4.357 4.366-7.5 5v-2c6.194-2.043 8.527-6.376 7-13a51.57 51.57 0 0 1-1-7z" fill="#c9979f"/><path d="M662.5 567.5l-2-37c-.999 13.317-1.333 26.65-1 40h-1v-41h4v38z" fill="#720a19"/><path d="M761.5 542.5v2a38.64 38.64 0 0 1-15 2v16c-.359-5.249-1.359-10.249-3-15 5.422-3.245 11.422-4.912 18-5z" fill="#614447"/><path d="M402.5 509.5c.539 7.881-1.628 14.881-6.5 21a463.58 463.58 0 0 0-3 15c-.898 2.569-2.065 4.902-3.5 7 1.408-4.186 2.075-8.519 2-13 3.498-8.367 6.832-16.867 10-25.5l-1-2.5-1 .5c-1.233 2.314-2.567 4.481-4 6.5-.592-5.484 1.741-8.484 7-9z" fill="#b02138"/><path d="M402.5 509.5c1.493.812 2.16 2.145 2 4a262.4 262.4 0 0 0-6 24.5c1.35 2.055 1.017 3.555-1 4.5a253.53 253.53 0 0 1-9 22c.662-3.966.995-7.966 1-12 1.435-2.098 2.602-4.431 3.5-7a463.58 463.58 0 0 1 3-15c4.872-6.119 7.039-13.119 6.5-21z" fill="#e41238"/><path d="M663.5 529.5l2 1c-.167 11.005 0 22.005.5 33 1.699.906 3.533 1.239 5.5 1-1.891 2.672-4.558 3.672-8 3v-38z" fill="#c91a3b"/><path d="M756.5 507.5c1.385 1.074 2.551 2.407 3.5 4a218.9 218.9 0 0 1 8.5 18c1.527 6.624-.806 10.957-7 13-6.578.088-12.578 1.755-18 5a61.5 61.5 0 0 0-15 3c7.361-3.941 15.028-7.441 23-10.5l11-1c.916-.374 1.75-.874 2.5-1.5 1.394-10.177-1.44-18.844-8.5-26v-4z" fill="#b82841"/><path d="M662.5 567.5c2.466 1.134 5.133 1.301 8 .5a71.09 71.09 0 0 1 24-7 1063.18 1063.18 0 0 1 34-10.5 61.5 61.5 0 0 1 15-3v3l-47 13.5c-.457.414-.791.914-1 1.5 1.634 3.194 2.968 6.528 4 10-.973 2.448-1.306 5.115-1 8 .022-6.155-1.978-11.655-6-16.5-4.051-.518-8.051-.184-12 1-1.82.2-3.153 1.034-4 2.5-3.805.767-7.639 1.433-11.5 2l-4.5-.5c-.556-.383-.889-.883-1-1.5-.333-13.35.001-26.683 1-40l2 37z" fill="#4d0a0d"/><path d="M743.5 550.5a372.3 372.3 0 0 0 1 23 180.87 180.87 0 0 1-.5 19 163.33 163.33 0 0 1-7 19c-.495 1.973-.662 3.973-.5 6-3.4 4.413-3.733 9.08-1 14 5.362 15.404.695 26.57-14 33.5-5.084.778-10.084.611-15-.5-3.175-.34-5.341-2.007-6.5-5l-1-11c-.414-.457-.914-.791-1.5-1-1.35 1.45-3.016 2.117-5 2a47.5 47.5 0 0 0-1-5.5 151.62 151.62 0 0 0 2-14.5c2.41-.889 4.91-1.555 7.5-2 14.822 4.503 19.155-.497 13-15-3.385-3.717-6.385-7.717-9-12a135.85 135.85 0 0 1-4-23c-.717-.544-1.217-1.211-1.5-2-1.032-3.472-2.366-6.806-4-10 .209-.586.543-1.086 1-1.5l47-13.5z" fill="#f5c6aa"/><path d="M743.5 547.5c1.641 4.751 2.641 9.751 3 15 .166 9.672 0 19.339-.5 29-.172-6.181-.672-12.181-1.5-18a372.3 372.3 0 0 1-1-23v-3z" fill="#241d1a"/><path d="M657.5 527.5c2.398-.241 4.398.426 6 2v38c3.442.672 6.109-.328 8-3 14.655-3.224 28.988-7.224 43-12 1.208-.734 2.541-1.067 4-1l10-1a1063.18 1063.18 0 0 0-34 10.5 71.09 71.09 0 0 0-24 7c-2.867.801-5.534.634-8-.5v-38h-4v41c-.996.086-1.829-.248-2.5-1l-.5-20.5c.036-7.402.703-14.569 2-21.5z" fill="#b5223b"/><path d="M665.5 530.5c.768.763 1.268 1.763 1.5 3a449.63 449.63 0 0 0 1.5 29.5 1414.62 1414.62 0 0 1 46-10.5c-14.012 4.776-28.345 8.776-43 12-1.967.239-3.801-.094-5.5-1-.5-10.995-.667-21.995-.5-33z" fill="#e6163c"/><path d="M386.5 552.5l-1.5 11c-.278.916-.778 1.582-1.5 2-.535-4.812.465-9.145 3-13z" fill="#6f4e4e"/><path d="M698.5 583.5v1a331.55 331.55 0 0 1-1.5 38c-4.127 2.96-7.294 6.627-9.5 11 1.151-5.059 3.817-9.059 8-12 1.155-14.674.988-29.34-.5-44-1.003-3.199-2.837-5.699-5.5-7.5a65.8 65.8 0 0 0-13 .5c.847-1.466 2.18-2.3 4-2.5 3.949-1.184 7.949-1.518 12-1 4.022 4.845 6.022 10.345 6 16.5z" fill="#b91e3a"/><path d="M657.5 527.5c-1.297 6.931-1.964 14.098-2 21.5l.5 20.5c.671.752 1.504 1.086 2.5 1 1.433 2.058 2.1 4.392 2 7 5.351-2.124 10.685-4.457 16-7a65.8 65.8 0 0 1 13-.5c2.663 1.801 4.497 4.301 5.5 7.5 1.488 14.66 1.655 29.326.5 44-4.183 2.941-6.849 6.941-8 12v1a41.27 41.27 0 0 1-7.5 2 359.57 359.57 0 0 0-45.5-.5 133.83 133.83 0 0 1-14 4c-.59 1.299-1.59 2.132-3 2.5l-18 6.5c-12.34 5.063-23.007 2.897-32-6.5a59.26 59.26 0 0 1 13 6.5c4.072.658 8.072.325 12-1-.951-.718-1.117-1.551-.5-2.5a10.94 10.94 0 0 1 4.5-3c8.789 2.941 16.456 1.108 23-5.5 3.361-.054 6.361-1.054 9-3 18.671-1.757 37.338-1.59 56 .5-.163-2.357.003-4.69.5-7 5.095-3.758 8.095-8.758 9-15a166.73 166.73 0 0 0-2-35c-.273-1.829-1.107-3.329-2.5-4.5-6.099-.429-12.099.237-18 2-1.473.71-2.14 1.876-2 3.5-1.052-.149-2.052.017-3 .5-1.872 2.944-4.539 4.111-8 3.5a12.93 12.93 0 0 0-.5-5l-5-7 .5-43h4z" fill="#e81039"/><path d="M658.5 570.5h1c.111.617.444 1.117 1 1.5l4.5.5c3.861-.567 7.695-1.233 11.5-2-5.315 2.543-10.649 4.876-16 7 .1-2.608-.567-4.942-2-7z" fill="#b81e37"/><path d="M386.5 552.5h2a1521.4 1521.4 0 0 1-10.5 50 175.25 175.25 0 0 0-2.5 36c-1.861-7.435-2.361-15.102-1.5-23 2.724-16.784 5.89-33.45 9.5-50 .722-.418 1.222-1.084 1.5-2l1.5-11z" fill="#4c0e14"/><path d="M746.5 562.5c1.158 9.825 1.325 19.825.5 30-2.613 11.208-5.78 22.208-9.5 33 .608 3.873 1.774 7.539 3.5 11 .667 4.667.667 9.333 0 14-1.026 2.739-2.526 5.072-4.5 7-2.087 1.085-3.42 2.751-4 5-7.663 6.012-16.33 7.678-26 5v-3c4.916 1.111 9.916 1.278 15 .5 14.695-6.93 19.362-18.096 14-33.5.72-4.2 1.386-8.533 2-13-.124-.607-.457-.94-1-1-.162-2.027.005-4.027.5-6a163.33 163.33 0 0 0 7-19 180.87 180.87 0 0 0 .5-19c.828 5.819 1.328 11.819 1.5 18 .5-9.661.666-19.328.5-29z" fill="#443c39"/><path d="M702.5 601.5c2.252 3.432 4.752 6.766 7.5 10a32.84 32.84 0 0 1 1 15c-.725.559-1.558.892-2.5 1-3.2-.161-5.867-1.161-8-3-.632-8.073.035-15.74 2-23z" fill="#f7f4f4"/><path d="M383.5 565.5c-3.61 16.55-6.776 33.216-9.5 50-.861 7.898-.361 15.565 1.5 23v3 4c-1.121-2.454-1.954-5.121-2.5-8a196.15 196.15 0 0 1 0-28l8-39c.374-1.991 1.207-3.658 2.5-5z" fill="#7e6262"/><path d="M699.5 600.5c1.291-.237 2.291.096 3 1-1.965 7.26-2.632 14.927-2 23h-1v-24z" fill="#996871"/><path d="M736.5 617.5c.543.06.876.393 1 1-.614 4.467-1.28 8.8-2 13-2.733-4.92-2.4-9.587 1-14z" fill="#1e1612"/><path d="M388.5 552.5h1c-.005 4.034-.338 8.034-1 12-1.738 4.717-2.404 9.717-2 15-1.293 1.342-2.126 3.009-2.5 5l-5 28c-.832 10.017-.666 20.017.5 30a37 37 0 0 1 4 7l-8-8v-3a175.25 175.25 0 0 1 2.5-36 1521.4 1521.4 0 0 0 10.5-50z" fill="#a92237"/><path d="M386.5 579.5c-1.508 9.418-3.341 18.752-5.5 28-.667 11-.667 22 0 33 .661 4.9 3.494 7.4 8.5 7.5 9.667.667 19.333.667 29 0 1.555-2.465 3.555-2.965 6-1.5 4.573-2.969 9.573-4.303 15-4l-16 7h-1c-13.004 1.311-26.004 1.311-39 0a37 37 0 0 0-4-7c-1.166-9.983-1.332-19.983-.5-30l5-28c.374-1.991 1.207-3.658 2.5-5z" fill="#e7173e"/><path d="M698.5 584.5c.988 5.14 1.321 10.474 1 16v24c-5.832 1.748-8.832 5.748-9 12-3.975 3.097-8.308 3.763-13 2 2.357.163 4.69-.003 7-.5 1.926-.422 2.926-1.589 3-3.5v-1c2.206-4.373 5.373-8.04 9.5-11a331.55 331.55 0 0 0 1.5-38z" fill="#650e1c"/><path d="M457.5 636.5c7.181-.879 13.181 1.288 18 6.5l13 5c5.667.667 11.333.667 17 0 3.914-1.283 7.914-2.116 12-2.5-9.663 4.666-19.997 6.166-31 4.5-7.111-2.444-13.778-5.777-20-10a56.47 56.47 0 0 0-15 0c-9.056 4.094-18.39 7.261-28 9.5l16-7a284.97 284.97 0 0 1 18-6z" fill="#b8223b"/><path d="M536.5 638.5c5.344-.166 10.677.001 16 .5 2.504.698 4.837 1.531 7 2.5a158.64 158.64 0 0 0-14-2l-18 3a20.42 20.42 0 0 1 9-4z" fill="#a62b3f"/><path d="M699.5 575.5c.283.789.783 1.456 1.5 2a135.85 135.85 0 0 0 4 23c2.615 4.283 5.615 8.283 9 12 6.155 14.503 1.822 19.503-13 15-2.59.445-5.09 1.111-7.5 2a151.62 151.62 0 0 1-2 14.5 47.5 47.5 0 0 1 1 5.5c1.984.117 3.65-.55 5-2 .586.209 1.086.543 1.5 1l1 11c1.159 2.993 3.325 4.66 6.5 5v3c-.722.418-1.222 1.084-1.5 2a60.93 60.93 0 0 0-.5 11c.162 2.027-.005 4.027-.5 6-.383.556-.883.889-1.5 1-.761-6.952-1.261-13.952-1.5-21-3.155-6.502-7.155-12.502-12-18-1.009-1.525-1.509-3.192-1.5-5a84.03 84.03 0 0 0-16-1c-12.133-1.752-24.467-2.252-37-1.5l-3 1.5c1.155-2.325 3.155-3.492 6-3.5 15.714-1.128 31.214-.295 46.5 2.5 3.485.012 5.652-1.655 6.5-5 .168-6.252 3.168-10.252 9-12h1c2.133 1.839 4.8 2.839 8 3 .942-.108 1.775-.441 2.5-1a32.84 32.84 0 0 0-1-15c-2.748-3.234-5.248-6.568-7.5-10-.709-.904-1.709-1.237-3-1 .321-5.526-.012-10.86-1-16v-1c-.306-2.885.027-5.552 1-8z" fill="#2a1f19"/><path d="M519.5 649.5c-1.14 1.301-2.473 2.468-4 3.5a88.27 88.27 0 0 1-28 2c-2.243-1.136-4.576-1.97-7-2.5-6.848-4.787-14.515-7.787-23-9-8.365 2.309-16.699 4.809-25 7.5-.752.671-1.086 1.504-1 2.5-3.559-.092-6.892.741-10 2.5l-37 1-6.5 22.5c-1.531 9.275-2.364 18.609-2.5 28l-2 7v-12c1.241-16.033 4.241-31.7 9-47a4.85 4.85 0 0 1 4-1c10.672.167 21.339 0 32-.5 3.663-.572 6.997-1.738 10-3.5a317.02 317.02 0 0 1 32-10c4.833.674 8.833 2.841 12 6.5l14 6c6.333.667 12.667.667 19 0l14-3.5z" fill="#e3d797"/><path d="M671.5 642.5c.381 1.431 1.381 2.264 3 2.5 3.722.238 7.389.738 11 1.5 5.159 6.303 9.326 13.303 12.5 21 2.263 18.098 2.763 36.098 1.5 54-1.644.214-3.144-.12-4.5-1-1.679 3.199-3.679 3.533-6 1-2.166 1.621-4.666 2.455-7.5 2.5l-17 .5a1065.46 1065.46 0 0 0-79.5 0l-32.5-1c-.746-1.236-1.079-2.57-1-4h-3c-.427-6.892-2.093-13.559-5-20-3.435-2.063-7.102-2.896-11-2.5-1.247 1.494-1.247 2.994 0 4.5a23.72 23.72 0 0 0 5 4c-.17 5.359-.67 10.692-1.5 16-.377 1.442-1.21 2.442-2.5 3h-4c.149-1.052-.017-2.052-.5-3-1.119 1.052-1.619 2.219-1.5 3.5l-66 1.5a4405.45 4405.45 0 0 1-81-.5c-1.601-.273-3.101-.773-4.5-1.5a32.46 32.46 0 0 1-.5-8c2.489-14.782 4.489-29.782 6-45 1.299-.59 2.132-1.59 2.5-3-.573-6.081 2.093-9.414 8-10 9.481 1.073 18.981 1.239 28.5.5 3.437-2.311 7.103-4.144 11-5.5-.086-.996.248-1.829 1-2.5 8.301-2.691 16.635-5.191 25-7.5 8.485 1.213 16.152 4.213 23 9 .584 1.757 1.751 3.09 3.5 4 8.85 2.561 17.683 2.395 26.5-.5a148.55 148.55 0 0 1 13-4c1.877-2.106 4.21-3.439 7-4a299.63 299.63 0 0 0 16.5-3.5c4.893 1.863 9.726 3.863 14.5 6 1.562.233 2.895.9 4 2 2.473 1.643 4.473 3.81 6 6.5 8.667.667 17.333.667 26 0a103.38 103.38 0 0 0 14-5.5c7.519-4.252 15.519-7.752 24-10.5 11.995-.5 23.995-.667 36-.5z" fill="#fcfd7e"/><path d="M574.5 655.5c-3.155-.477-6.155-1.477-9-3-1.105-1.1-2.438-1.767-4-2-1.93-2.97-4.597-5.137-8-6.5l-6.5-.5a133.26 133.26 0 0 0-27.5 6c.558-1.29 1.558-2.123 3-2.5a172.74 172.74 0 0 0 17-5 42.48 42.48 0 0 1 13 0c7.749 3.935 15.082 8.435 22 13.5z" fill="#e5d696"/><path d="M563.5 639.5c-1.696-.185-3.029-1.019-4-2.5a100.2 100.2 0 0 0-20 0c-1.237.232-2.237.732-3 1.5a20.42 20.42 0 0 0-9 4l-10 3c-4.086.384-8.086 1.217-12 2.5-5.667.667-11.333.667-17 0l-13-5c-4.819-5.212-10.819-7.379-18-6.5 4.848-1.314 9.848-1.314 15 0 1.527 1.693 2.86 3.527 4 5.5l13 5c5.714.632 11.381.299 17-1 8.392-1.742 16.392-4.575 24-8.5a120.38 120.38 0 0 1 17-4c4.176 1.521 8.509 2.355 13 2.5 1.556.72 2.556 1.887 3 3.5z" fill="#dc183c"/><path d="M671.5 642.5c-12.005-.167-24.005 0-36 .5-8.481 2.748-16.481 6.248-24 10.5-4.897 1.379-9.897 2.379-15 3 11.477-4.896 23.143-9.563 35-14l3-1.5c12.533-.752 24.867-.252 37 1.5z" fill="#ddd394"/><path d="M383.5 649.5c12.996 1.311 25.996 1.311 39 0-.418.722-1.084 1.222-2 1.5-10.995.5-21.995.667-33 .5-1.88.271-3.213-.396-4-2z" fill="#c02b46"/><path d="M687.5 634.5c-.074 1.911-1.074 3.078-3 3.5-2.31.497-4.643.663-7 .5a359.95 359.95 0 0 0-42-.5c-6.461 1.372-12.461 3.705-18 7-6.175 1.932-12.175 4.098-18 6.5a184.09 184.09 0 0 1-23 1c-6.042-3.12-11.709-6.787-17-11-2.163-.969-4.496-1.802-7-2.5-5.323-.499-10.656-.666-16-.5.763-.768 1.763-1.268 3-1.5a100.2 100.2 0 0 1 20 0c.971 1.481 2.304 2.315 4 2.5 1.137 1.289 2.47 2.289 4 3 8.993 9.397 19.66 11.563 32 6.5l18-6.5c1.41-.368 2.41-1.201 3-2.5a133.83 133.83 0 0 0 14-4 359.57 359.57 0 0 1 45.5.5 41.27 41.27 0 0 0 7.5-2z" fill="#c01e3c"/><path d="M375.5 641.5l8 8c.787 1.604 2.12 2.271 4 2 13.596 1.532 27.262 1.199 41-1-3.003 1.762-6.337 2.928-10 3.5-10.661.5-21.328.667-32 .5-4.701-1.692-8.367-4.692-11-9v-4z" fill="#450c0b"/><path d="M690.5 636.5c-.848 3.345-3.015 5.012-6.5 5-15.286-2.795-30.786-3.628-46.5-2.5-2.845.008-4.845 1.175-6 3.5-11.857 4.437-23.523 9.104-35 14-7.39.264-14.723-.07-22-1-6.918-5.065-14.251-9.565-22-13.5a42.48 42.48 0 0 0-13 0 172.74 172.74 0 0 1-17 5c-1.442.377-2.442 1.21-3 2.5l-14 3.5c-6.333.667-12.667.667-19 0l-14-6c-3.167-3.659-7.167-5.826-12-6.5a317.02 317.02 0 0 0-32 10c-13.738 2.199-27.404 2.532-41 1 11.005.167 22.005 0 33-.5.916-.278 1.582-.778 2-1.5h1c9.61-2.239 18.944-5.406 28-9.5a56.47 56.47 0 0 1 15 0c6.222 4.223 12.889 7.556 20 10 11.003 1.666 21.337.166 31-4.5l10-3 18-3a158.64 158.64 0 0 1 14 2c5.291 4.213 10.958 7.88 17 11 3.195 1.53 6.695 2.196 10.5 2l7.5-.5c2.153-.099 3.819-.933 5-2.5 5.825-2.402 11.825-4.568 18-6.5 5.539-3.295 11.539-5.628 18-7a359.95 359.95 0 0 1 42 .5c4.692 1.763 9.025 1.097 13-2z" fill="#581d16"/><path d="M599.5 651.5c-1.181 1.567-2.847 2.401-5 2.5l-7.5.5c-3.805.196-7.305-.47-10.5-2a184.09 184.09 0 0 0 23-1z" fill="#901e2f"/><path d="M375.5 645.5c2.633 4.308 6.299 7.308 11 9a4.85 4.85 0 0 0-4 1c-4.759 15.3-7.759 30.967-9 47-.993 8.15-1.326 16.483-1 25-1.287-1.371-1.953-3.205-2-5.5l2-32.5v-3c.556-4.695 1.723-9.362 3.5-14 .499-3.986.666-7.986.5-12a50.88 50.88 0 0 1 1-7l-2-8z" fill="#353127"/><path d="M561.5 650.5c-4.774-2.137-9.607-4.137-14.5-6a299.63 299.63 0 0 1-16.5 3.5c-2.79.561-5.123 1.894-7 4a148.55 148.55 0 0 0-13 4c-8.817 2.895-17.65 3.061-26.5.5-1.749-.91-2.916-2.243-3.5-4 2.424.53 4.757 1.364 7 2.5a88.27 88.27 0 0 0 28-2c1.527-1.032 2.86-2.199 4-3.5a133.26 133.26 0 0 1 27.5-6l6.5.5c3.403 1.363 6.07 3.53 8 6.5zm-130 3c-3.897 1.356-7.563 3.189-11 5.5-9.519.739-19.019.573-28.5-.5-5.907.586-8.573 3.919-8 10-.368 1.41-1.201 2.41-2.5 3-1.511 15.218-3.511 30.218-6 45v-9c.136-9.391.969-18.725 2.5-28l6.5-22.5 37-1c3.108-1.759 6.441-2.592 10-2.5z" fill="#faf98d"/><path d="M565.5 652.5c2.845 1.523 5.845 2.523 9 3 7.277.93 14.61 1.264 22 1 5.103-.621 10.103-1.621 15-3a103.38 103.38 0 0 1-14 5.5c-8.667.667-17.333.667-26 0-1.527-2.69-3.527-4.857-6-6.5z" fill="#faf394"/><path d="M736.5 657.5c-.58 2.249-1.913 3.915-4 5 .58-2.249 1.913-3.915 4-5z" fill="#6e7173"/><path d="M376.5 660.5c.166 4.014-.001 8.014-.5 12-1.777 4.638-2.944 9.305-3.5 14 .695-8.871 2.028-17.538 4-26z" fill="#7c7c7d"/><path d="M706.5 667.5v42c-1.386-2.715-2.053-5.715-2-9 1.133-6.83 1.133-13.496 0-20a60.93 60.93 0 0 1 .5-11c.278-.916.778-1.582 1.5-2z" fill="#5f605f"/><path d="M671.5 642.5a84.03 84.03 0 0 1 16 1c-.009 1.808.491 3.475 1.5 5 4.845 5.498 8.845 11.498 12 18 .239 7.048.739 14.048 1.5 21a357.63 357.63 0 0 1 .5 37c-1.356.88-2.856 1.214-4.5 1 .734-1.208 1.067-2.541 1-4 1.263-17.902.763-35.902-1.5-54-3.174-7.697-7.341-14.697-12.5-21-3.611-.762-7.278-1.262-11-1.5-1.619-.236-2.619-1.069-3-2.5z" fill="#ecea9d"/><path d="M543.5 707.5l1 6c-1.25-.077-2.083-.744-2.5-2a60.93 60.93 0 0 0-.5 11h4v-5l3 9a.91.91 0 0 1-.5 1c-.816-1.323-1.983-1.989-3.5-2-1-1.333-2-1.333-3 0-.791 1.943-2.291 2.943-4.5 3-1.376-.184-2.209-.851-2.5-2 2.307-1.477 4.14-3.477 5.5-6a42.48 42.48 0 0 0 0-13c-.708-.881-1.542-1.547-2.5-2l-4-7c2.624-.616 4.791.384 6.5 3a31.94 31.94 0 0 1 3.5 6z" fill="#302f1f"/><path d="M544.5 713.5l1 4v5h-4a60.93 60.93 0 0 1 .5-11c.417 1.256 1.25 1.923 2.5 2z" fill="#110f0d"/><path d="M372.5 689.5l-2 32.5c.047 2.295.713 4.129 2 5.5-.172.992.162 1.658 1 2-.086.996.248 1.829 1 2.5 6.69.714 13.356.548 20-.5 6.74 1.436 13.406 2.436 20 3a931.75 931.75 0 0 1-41-1.5l-3.5-3.5c-2.345-13.608-1.512-26.942 2.5-40z" fill="#696969"/><path d="M373.5 702.5v12 14c2.885-.306 5.552.027 8 1h-8c-.838-.342-1.172-1.008-1-2-.326-8.517.007-16.85 1-25z" fill="#afaf80"/><path d="M699.5 721.5c.067 1.459-.266 2.792-1 4-26.855 1.151-53.522 1.151-80 0l-68 .5c-.96-1.419-1.793-2.919-2.5-4.5a52.14 52.14 0 0 0-1.5-10c-.65-1.684-1.65-3.017-3-4a31.94 31.94 0 0 0-3.5-6c-1.709-2.616-3.876-3.616-6.5-3l4 7a23.72 23.72 0 0 1-5-4c-1.247-1.506-1.247-3.006 0-4.5 3.898-.396 7.565.437 11 2.5 2.907 6.441 4.573 13.108 5 20h3c-.079 1.43.254 2.764 1 4l32.5 1a1065.46 1065.46 0 0 1 79.5 0l17-.5c2.834-.045 5.334-.879 7.5-2.5 2.321 2.533 4.321 2.199 6-1 1.356.88 2.856 1.214 4.5 1z" fill="#f9f892"/><path d="M543.5 707.5c1.35.983 2.35 2.316 3 4a52.14 52.14 0 0 1 1.5 10c.707 1.581 1.54 3.081 2.5 4.5l68-.5c-20.974 1.989-42.307 2.656-64 2-2.121.175-4.121-.159-6-1-1.132-3.051-2.132-6.051-3-9l-1-4-1-6z" fill="#d5d499"/><path d="M618.5 725.5c26.478 1.151 53.145 1.151 80 0-.111.617-.444 1.117-1 1.5a824.55 824.55 0 0 1-68-.5c-3.462-.982-7.129-1.315-11-1z" fill="#e8e5a7"/><path d="M537.5 705.5c.958.453 1.792 1.119 2.5 2a42.48 42.48 0 0 1 0 13c-1.36 2.523-3.193 4.523-5.5 6a42.47 42.47 0 0 0-5 1.5l-75 1.5h-3-60-10c-2.448-.973-5.115-1.306-8-1v-14l2-7v9c-.66 1.464-.993 3.131-1 5 .113 2.141.78 3.975 2 5.5a1962.84 1962.84 0 0 0 153-1c1.558-.21 2.891-.71 4-1.5 1.29-.558 2.123-1.558 2.5-3 .83-5.308 1.33-10.641 1.5-16z" fill="#eeeda0"/><path d="M375.5 716.5a32.46 32.46 0 0 0 .5 8c1.399.727 2.899 1.227 4.5 1.5l81 .5 66-1.5c-.119-1.281.381-2.448 1.5-3.5.483.948.649 1.948.5 3h4c-1.109.79-2.442 1.29-4 1.5a1962.84 1962.84 0 0 1-153 1c-1.22-1.525-1.887-3.359-2-5.5.007-1.869.34-3.536 1-5z" fill="#f9f98c"/><path d="M618.5 725.5c3.871-.315 7.538.018 11 1-10.928 1.541-21.928 2.374-33 2.5 4.62 3.738 7.286 8.571 8 14.5a29.37 29.37 0 0 0-9-13c-12.493-.831-25.16-1.331-38-1.5-1.237-.232-2.237-.732-3-1.5 21.693.656 43.026-.011 64-2z" fill="#45443c"/><path d="M455.5 729.5a1403.99 1403.99 0 0 1 53 .5c-8.972 1.04-17.972 1.54-27 1.5-5.137.568-10.137 1.234-15 2h-9a16.87 16.87 0 0 1-8-1c2.384-.511 4.384-1.511 6-3z" fill="#1c1913"/><path d="M541.5 725.5c.214 1.644-.12 3.144-1 4.5l-59 2.5v-1c9.028.04 18.028-.46 27-1.5a1403.99 1403.99 0 0 0-53-.5h-1l75-1.5a42.47 42.47 0 0 1 5-1.5c.291 1.149 1.124 1.816 2.5 2 2.209-.057 3.709-1.057 4.5-3z" fill="#7a7965"/><path d="M544.5 725.5c1.517.011 2.684.677 3.5 2a.91.91 0 0 0 .5-1c1.879.841 3.879 1.175 6 1 .763.768 1.763 1.268 3 1.5 12.84.169 25.507.669 38 1.5-15.67.167-31.337 0-47-.5a25.14 25.14 0 0 1-4-4.5z" fill="#656460"/><path d="M704.5 680.5c1.133 6.504 1.133 13.17 0 20-.053 3.285.614 6.285 2 9 .322 5.858-.011 11.525-1 17-2.597.143-4.931.977-7 2.5-11.995.5-23.995.667-36 .5v17c.344 6.582-.323 12.916-2 19-.722.418-1.222 1.084-1.5 2a32.46 32.46 0 0 1-.5-8v-27c-12.43.224-24.763-.776-37-3a136.81 136.81 0 0 0-16 3c1.86 7.746 4.026 15.413 6.5 23a150.01 150.01 0 0 1 3.5 20h-2c-.478-6.789-2.144-13.122-5-19v-2c-.047-3.068-.547-6.068-1.5-9-.708-.881-1.542-1.547-2.5-2-.714-5.929-3.38-10.762-8-14.5 11.072-.126 22.072-.959 33-2.5a824.55 824.55 0 0 0 68 .5c.556-.383.889-.883 1-1.5 1.644.214 3.144-.12 4.5-1a357.63 357.63 0 0 0-.5-37c.617-.111 1.117-.444 1.5-1 .495-1.973.662-3.973.5-6z" fill="#322d25"/><path d="M705.5 726.5c-.453.958-1.119 1.792-2 2.5-13.228 2.211-26.561 3.044-40 2.5.321 5.195-.013 10.195-1 15v-17c12.005.167 24.005 0 36-.5 2.069-1.523 4.403-2.357 7-2.5z" fill="#585857"/><path d="M373.5 729.5h8 10l47.5 2c4.411.014 8.578-.653 12.5-2h3 1c-1.616 1.489-3.616 2.489-6 3a16.87 16.87 0 0 0 8 1c-8.484.993-17.151 1.326-26 1-2.514-1.07-5.181-2.07-8-3-2.679.436-5.345.936-8 1.5 1.063 1.188 2.397 1.688 4 1.5.237 1.291-.096 2.291-1 3a9.82 9.82 0 0 0-4-3c-6.594-.564-13.26-1.564-20-3-6.644 1.048-13.31 1.214-20 .5-.752-.671-1.086-1.504-1-2.5z" fill="#3d3a2c"/><path d="M391.5 729.5h60c-3.922 1.347-8.089 2.014-12.5 2l-47.5-2z" fill="#cfd09b"/><path d="M431.5 734.5h-11-1c-1.603.188-2.937-.312-4-1.5l8-1.5 8 3z" fill="#120c05"/><path d="M457.5 733.5h9 12l-4 29a102.31 102.31 0 0 0-2 20c-5.228 1.974-10.562 3.641-16 5-3.521 2.414-7.521 3.414-12 3-4.77.725-8.77-.609-12-4-3.42-10.799-7.087-21.466-11-32a553.65 553.65 0 0 0-1-20h11c8.849.326 17.516-.007 26-1z" fill="#ebc6b0"/><path d="M456.5 787.5a55.37 55.37 0 0 1-20 0 31.84 31.84 0 0 0-4.5-5 271.88 271.88 0 0 0-8-27 400.88 400.88 0 0 1-1.5-19h52a28.36 28.36 0 0 1-2 12.5c1.132 4.413 1.299 8.913.5 13.5-1.085 4.937-1.752 9.937-2 15-1.883 1.153-2.716 2.819-2.5 5-4.39.823-8.39 2.49-12 5z" fill="#f7c6a8"/><path d="M419.5 734.5h1a553.65 553.65 0 0 1 1 20c-.722-.418-1.222-1.084-1.5-2l-1.5-15c.904-.709 1.237-1.709 1-3z" fill="#90857d"/><path d="M604.5 743.5c.958.453 1.792 1.119 2.5 2 .953 2.932 1.453 5.932 1.5 9-1.474-3.526-2.807-7.193-4-11z" fill="#5a5a5b"/><path d="M658.5 759.5c-.985 4.134-1.318 8.468-1 13-1.984 4.172-5.318 6.672-10 7.5a140.77 140.77 0 0 1-29-.5l-3-4a150.01 150.01 0 0 0-3.5-20c-2.474-7.587-4.64-15.254-6.5-23a136.81 136.81 0 0 1 16-3c12.237 2.224 24.57 3.224 37 3v27z" fill="#e2beab"/><path d="M612.5 732.5a264.95 264.95 0 0 1 23 .5c7.079 1.149 14.246 1.982 21.5 2.5.575 12.02.242 24.02-1 36-1.044 3.21-3.21 5.21-6.5 6a122.08 122.08 0 0 1-27 .5l-5.5-5.5c-1.146-6.976-2.146-13.976-3-21-2.682-5.709-4.515-11.709-5.5-18 1.599.268 2.932-.066 4-1z" fill="#f8c6a9"/><path d="M608.5 756.5c2.856 5.878 4.522 12.211 5 19-.158 3.402.176 6.736 1 10v7c-1.341-12.004-3.341-24.004-6-36z" fill="#6c6b69"/><path d="M658.5 759.5a32.46 32.46 0 0 0 .5 8c.278-.916.778-1.582 1.5-2a314.29 314.29 0 0 0-.5 32l2.5 7c-.996.086-1.829-.248-2.5-1-.2 1.82-1.034 3.153-2.5 4 .297-7.42-.036-14.754-1-22 1.3-1.723 1.967-3.89 2-6.5-.004-2.361-.337-4.527-1-6.5-.318-4.532.015-8.866 1-13z" fill="#444342"/><path d="M421.5 754.5c3.913 10.534 7.58 21.201 11 32-.904.709-1.237 1.709-1 3-4.587-11.246-7.921-22.913-10-35z" fill="#776961"/><path d="M657.5 772.5c.663 1.973.996 4.139 1 6.5-.033 2.61-.7 4.777-2 6.5v-3c-2.235-.295-4.235.039-6 1a133.4 133.4 0 0 1-32 0l-2 7a112.33 112.33 0 0 0-2-5c-.824-3.264-1.158-6.598-1-10h2l3 4a140.77 140.77 0 0 0 29 .5c4.682-.828 8.016-3.328 10-7.5z" fill="#141212"/><path d="M618.5 783.5a133.4 133.4 0 0 0 32 0h5a209.17 209.17 0 0 1 1 25c-2.447 3.953-5.113 7.787-8 11.5a46.4 46.4 0 0 1-16-1 22.14 22.14 0 0 1-8-5.5 189.46 189.46 0 0 0-5.5-18c-.499-3.986-.666-7.986-.5-12z" fill="#f8f8f8"/><path d="M481.5 731.5v1c-2.935 15.053-4.935 30.387-6 46 .323 6.522-.01 12.855-1 19v-35l4-29h-12c4.863-.766 9.863-1.432 15-2z" fill="#554f4c"/><path d="M470.5 786.5c1.946 4.896 2.613 10.229 2 16-.72 5.638-1.053 11.304-1 17a193.26 193.26 0 0 0-18 5.5c-5.837 1.992-9.671.158-11.5-5.5l-6.5-20a51.57 51.57 0 0 1-1-7c5.506 1.876 11.172 2.376 17 1.5 6.329-2.608 12.663-5.108 19-7.5z" fill="#f9f9f9"/><path d="M474.5 762.5v35c-.983-3.798-1.317-7.798-1-12-1.291-.237-2.291.096-3 1-6.337 2.392-12.671 4.892-19 7.5-5.828.876-11.494.376-17-1.5a51.57 51.57 0 0 0 1 7c-1.109.057-2.109.39-3 1a49.37 49.37 0 0 0-1-11c-.237-1.291.096-2.291 1-3 3.23 3.391 7.23 4.725 12 4 4.479.414 8.479-.586 12-3 5.438-1.359 10.772-3.026 16-5a102.31 102.31 0 0 1 2-20z" fill="#393330"/><path d="M650.5 783.5c1.765-.961 3.765-1.295 6-1v3c.964 7.246 1.297 14.58 1 22 0 .667-.333 1-1 1a209.17 209.17 0 0 0-1-25h-5z" fill="#c3c3c4"/><path d="M431.5 802.5v3l-2 1c-.06-.543-.393-.876-1-1l-4 3c1.078-3.408 3.411-5.408 7-6z" fill="#6f6e68"/><path d="M618.5 783.5c-.166 4.014.001 8.014.5 12a189.46 189.46 0 0 1 5.5 18c-1.25.077-2.083.744-2.5 2a12.93 12.93 0 0 0-.5 5 32.62 32.62 0 0 1-8 12c-3.754 1.365-4.921 4.032-3.5 8 1.171 1.393 2.671 2.227 4.5 2.5a334.2 334.2 0 0 0 36.5-1.5c6.246.135 12.413.802 18.5 2-.111.617-.444 1.117-1 1.5 1.619.236 2.619 1.069 3 2.5-1.459.067-2.792-.266-4-1-1.954-2.016-4.454-3.016-7.5-3-2.033.006-3.866.339-5.5 1-4.498 1.249-8.998 1.249-13.5 0-2.531.436-4.698 1.102-6.5 2l-4-.5c2.095-.556 2.262-1.056.5-1.5-1.221.772-2.221 1.772-3 3-.483-.948-.649-1.948-.5-3-4.541-.169-4.874.498-1 2-.124.607-.457.94-1 1h-5v-3c-3.098-.087-3.432.413-1 1.5l-2 .5c-1.367-.725-2.7-1.392-4-2-2.056-.716-4.223-1.383-6.5-2-.884-3.933-.384-7.599 1.5-11 .572-1.755 1.406-3.422 2.5-5 5.356-2.839 8.522-7.172 9.5-13-2.161-6.981-4.161-13.981-6-21v-7a112.33 112.33 0 0 1 2 5l2-7z" fill="#2a2925"/><path d="M429.5 806.5a65.4 65.4 0 0 0-6 14c-.968-2.107-1.302-4.441-1-7a16.34 16.34 0 0 1 2-5l4-3c.607.124.94.457 1 1z" fill="#1c1b16"/><path d="M431.5 805.5c2.087 1.085 3.42 2.751 4 5-1.758-1.499-3.591-1.832-5.5-1-3.473 5.466-5.473 11.466-6 18-.417 1.256-1.25 1.923-2.5 2v-4c.809-1.528 1.476-3.194 2-5a65.4 65.4 0 0 1 6-14l2-1z" fill="#c2b87f"/><path d="M475.5 778.5l1 46c-.617-.111-1.117-.444-1.5-1-.176-7.224-1.009-14.224-2.5-21 .613-5.771-.054-11.104-2-16 .709-.904 1.709-1.237 3-1-.317 4.202.017 8.202 1 12 .99-6.145 1.323-12.478 1-19z" fill="#7b7c7b"/><path d="M662.5 804.5c1.639.973 2.973 2.306 4 4 2.448 3.589 2.448 6.922 0 10a41.73 41.73 0 0 0-1-9c-1.052-.149-2.052.017-3 .5l-12 14c-3.986.499-7.986.666-12 .5-5.384-2.171-11.051-3.504-17-4a12.93 12.93 0 0 1 .5-5c.417-1.256 1.25-1.923 2.5-2a22.14 22.14 0 0 0 8 5.5 46.4 46.4 0 0 0 16 1c2.887-3.713 5.553-7.547 8-11.5.667 0 1-.333 1-1 1.466-.847 2.3-2.18 2.5-4 .671.752 1.504 1.086 2.5 1z" fill="#15130e"/><path d="M666.5 808.5c1.835.622 3.002 1.956 3.5 4a88.58 88.58 0 0 0 1.5 12c-1.291-.237-2.291.096-3 1-1.112-2.099-1.779-4.433-2-7 2.448-3.078 2.448-6.411 0-10z" fill="#43433d"/><path d="M621.5 820.5c5.949.496 11.616 1.829 17 4l-15-.5c-2.871 2.703-5.538 5.536-8 8.5h-2a32.62 32.62 0 0 0 8-12z" fill="#c5bb7f"/><path d="M672.5 824.5c5.675.053 10.675 1.719 15 5-5.284-1.095-10.284-2.761-15-5z" fill="#949494"/><path d="M422.5 813.5c-.302 2.559.032 4.893 1 7-.524 1.806-1.191 3.472-2 5-1.498 2.831-3.831 4.498-7 5 1.188-.864 2.355-1.864 3.5-3 1.869-4.691 3.369-9.358 4.5-14z" fill="#585954"/><path d="M677.5 831.5c6.971 1.383 13.637 3.383 20 6 1.928 1.613 4.262 2.613 7 3l1 2-2 5h-1c.131-.876-.202-1.543-1-2-1.236.746-2.57 1.079-4 1v-3a61.26 61.26 0 0 0-13 1c-.667 0-1-.333-1-1-5.59-1.455-11.256-2.455-17-3-.763-.768-1.763-1.268-3-1.5l-18.5-.5c-10.661.069-21.161.569-31.5 1.5-.522-.561-.855-1.228-1-2 1.132-1.765 2.132-3.598 3-5.5 2.462-2.964 5.129-5.797 8-8.5l15 .5c4.39 1.873 9.056 2.373 14 1.5l9-11c.948-.483 1.948-.649 3-.5-.166 4.014.001 8.014.5 12 3.59 2.836 7.756 4.503 12.5 5z" fill="#f8d465"/><path d="M666.5 818.5c.221 2.567.888 4.901 2 7 2.828 2.248 5.828 4.248 9 6-4.744-.497-8.91-2.164-12.5-5-.499-3.986-.666-7.986-.5-12-1.052-.149-2.052.017-3 .5l-9 11c-4.944.873-9.61.373-14-1.5 4.014.166 8.014-.001 12-.5l12-14c.948-.483 1.948-.649 3-.5a41.73 41.73 0 0 1 1 9z" fill="#c8bd7e"/><path d="M671.5 824.5h1c4.716 2.239 9.716 3.905 15 5a303.66 303.66 0 0 1 19 5c1.085 2.087 2.751 3.42 5 4 1.527-.073 2.527.594 3 2v3c-2.092.061-3.592 1.061-4.5 3-.278-.916-.778-1.582-1.5-2a4.85 4.85 0 0 0-1-4 28.32 28.32 0 0 0-10-3c-6.363-2.617-13.029-4.617-20-6-3.172-1.752-6.172-3.752-9-6 .709-.904 1.709-1.237 3-1z" fill="#191714"/><path d="M421.5 825.5v4c-2.786 2.726-6.119 4.393-10 5a.91.91 0 0 1-1-.5c.881-.708 1.547-1.542 2-2.5.342-.838 1.008-1.172 2-1 3.169-.502 5.502-2.169 7-5z" fill="#18160f"/><path d="M435.5 799.5l6.5 20c1.829 5.658 5.663 7.492 11.5 5.5a193.26 193.26 0 0 1 18-5.5c-.053-5.696.28-11.362 1-17 1.491 6.776 2.324 13.776 2.5 21 .383.556.883.889 1.5 1 7.07 5.054 9.07 11.387 6 19-2.357.163-4.69-.003-7-.5.916-.278 1.582-.778 2-1.5h3c.202-2.489-.298-4.823-1.5-7l-9-11c-4.483.504-8.649 2.004-12.5 4.5-4.667.667-9.333.667-14 0-2.828-5.818-5.494-11.652-8-17.5-.58-2.249-1.913-3.915-4-5v-3c.838-.342 1.172-1.008 1-2 .891-.61 1.891-.943 3-1z" fill="#21201b"/><path d="M706.5 834.5c2.249.58 3.915 1.913 5 4-2.249-.58-3.915-1.913-5-4z" fill="#6b6b6e"/><path d="M412.5 831.5c-.453.958-1.119 1.792-2 2.5a.91.91 0 0 0 1 .5c-9.48 3.272-18.814 6.938-28 11-1.562.233-2.895.9-4 2-1.495.085-2.495-.581-3-2a14.84 14.84 0 0 1 4-3.5c10.488-4.12 21.155-7.62 32-10.5z" fill="#65635a"/><path d="M435.5 810.5a53.07 53.07 0 0 0 1.5 14c.197 2.361 1.364 4.028 3.5 5a60.95 60.95 0 0 0 27.5-2c1.107.085 2.107.419 3 1 .428 3.961 2.594 6.294 6.5 7v4c-20.711 1.974-41.378 4.807-62 8.5-4.071 3.025-8.738 4.359-14 4a100.2 100.2 0 0 1-20 0c-.522-.561-.855-1.228-1-2 .815-1.643 1.815-3.143 3-4.5 9.123-3.115 18.457-5.615 28-7.5l8-4c1.082-1.33 1.749-2.83 2-4.5 1.25-.077 2.083-.744 2.5-2 .527-6.534 2.527-12.534 6-18 1.909-.832 3.742-.499 5.5 1z" fill="#f8d465"/><path d="M613.5 832.5c-.759 1.936-1.759 3.769-3 5.5.259 1.261.926 2.261 2 3 13.674.068 27.341-.432 41-1.5a152.88 152.88 0 0 1 13 1c5.744.545 11.41 1.545 17 3h-14c-6.087-1.198-12.254-1.865-18.5-2a334.2 334.2 0 0 1-36.5 1.5c-1.829-.273-3.329-1.107-4.5-2.5-1.421-3.968-.254-6.635 3.5-8z" fill="#c0b77c"/><path d="M613.5 832.5h2c-.868 1.902-1.868 3.735-3 5.5.145.772.478 1.439 1 2 10.339-.931 20.839-1.431 31.5-1.5l18.5.5c1.237.232 2.237.732 3 1.5a152.88 152.88 0 0 0-13-1c-13.659 1.068-27.326 1.568-41 1.5-1.074-.739-1.741-1.739-2-3 1.241-1.731 2.241-3.564 3-5.5z" fill="#e2d079"/><path d="M608.5 831.5c-1.884 3.401-2.384 7.067-1.5 11 2.277.617 4.444 1.284 6.5 2h-5c-3.12-.374-4.454-2.207-4-5.5-.087-3.329 1.246-5.829 4-7.5z" fill="#535353"/><path d="M697.5 837.5a28.32 28.32 0 0 1 10 3 4.85 4.85 0 0 1 1 4c-.667 0-1 .333-1 1l-4 2 2-5-1-2c-2.738-.387-5.072-1.387-7-3z" fill="#bab683"/><path d="M435.5 810.5c2.506 5.848 5.172 11.682 8 17.5 4.667.667 9.333.667 14 0 3.851-2.496 8.017-3.996 12.5-4.5l9 11c1.202 2.177 1.702 4.511 1.5 7h-3c-8.522.589-16.855 1.589-25 3-14.684-.488-28.684 2.346-42 8.5-2.31.497-4.643.663-7 .5l-18 1a20.69 20.69 0 0 1-5-1c0-.667-.333-1-1-1v-5c1.105-1.1 2.438-1.767 4-2-1.185 1.357-2.185 2.857-3 4.5.145.772.478 1.439 1 2a100.2 100.2 0 0 0 20 0c5.262.359 9.929-.975 14-4 20.622-3.693 41.289-6.526 62-8.5v-4c-3.906-.706-6.072-3.039-6.5-7-.893-.581-1.893-.915-3-1a60.95 60.95 0 0 1-27.5 2c-2.136-.972-3.303-2.639-3.5-5a53.07 53.07 0 0 1-1.5-14z" fill="#d6c47e"/><path d="M477.5 841.5c-.418.722-1.084 1.222-2 1.5 2.31.497 4.643.663 7 .5-.342.838-1.008 1.172-2 1-8.375.92-16.708 1.253-25 1-.709-.904-1.709-1.237-3-1 8.145-1.411 16.478-2.411 25-3z" fill="#4f4a3b"/><path d="M654.5 844.5c1.634-.661 3.467-.994 5.5-1 3.046-.016 5.546.984 7.5 3a177.86 177.86 0 0 1-13-2z" fill="#646565"/><path d="M669.5 843.5h14c0 .667.333 1 1 1 1.517 1.235 3.184 1.235 5 0l2 4c-.067 1.459.266 2.792 1 4-3.331.482-5.997-.518-8-3 1.812-.271 3.478-.938 5-2-1.289-.332-2.955-.666-5-1h-2c-.709-.904-1.709-1.237-3-1v3h3c-1.072 2.34-2.739 2.673-5 1-.948-3.215-2.281-3.548-4-1l-2-1c-.381-1.431-1.381-2.264-3-2.5.556-.383.889-.883 1-1.5z" fill="#acaa97"/><path d="M702.5 847.5h-1-5c-.333-4-.667-4-1 0-1.599-.268-2.932.066-4 1l-2-4c-1.816 1.235-3.483 1.235-5 0a61.26 61.26 0 0 1 13-1v3c1.43.079 2.764-.254 4-1 .798.457 1.131 1.124 1 2z" fill="#b9ac72"/><path d="M421.5 829.5c-.251 1.67-.918 3.17-2 4.5l-8 4c-9.543 1.885-18.877 4.385-28 7.5 9.186-4.062 18.52-7.728 28-11 3.881-.607 7.214-2.274 10-5z" fill="#c7bc7e"/><path d="M480.5 844.5c-1.792.809-3.792 1.309-6 1.5a242.43 242.43 0 0 1-22 .5c.709-.904 1.709-1.237 3-1 8.292.253 16.625-.08 25-1z" fill="#767674"/><path d="M452.5 844.5c1.291-.237 2.291.096 3 1-1.291-.237-2.291.096-3 1-.992-.172-1.658.162-2 1-3.989-.384-7.655.283-11 2-14.163 2.498-28.163 5.498-42 9-7.323.571-14.323-.429-21-3 .683-1.676 2.017-2.343 4-2a20.69 20.69 0 0 0 5 1c6.066 1.329 12.066.995 18-1 2.357.163 4.69-.003 7-.5 13.316-6.154 27.316-8.988 42-8.5z" fill="#1b1914"/><path d="M608.5 844.5h5l4 2 2-.5c-2.432-1.087-2.098-1.587 1-1.5v3h5c-2.331.817-4.831 1.484-7.5 2a55.7 55.7 0 0 0-8.5-3c-.798-.457-1.131-1.124-1-2z" fill="#d0d0d0"/><path d="M682.5 846.5v2h-3v-3c1.291-.237 2.291.096 3 1z" fill="#151410"/><path d="M684.5 846.5l5 1c-1.522 1.062-3.188 1.729-5 2v-3z" fill="#2e2e26"/><path d="M714.5 840.5c1.098 1.101 1.265 2.434.5 4-6.269 6.569-13.769 9.236-22.5 8 4.318.571 7.318-1.096 9-5h1 1c-.111.617-.444 1.117-1 1.5 2.759.977 4.759.144 6-2.5-.124-.607-.457-.94-1-1 0-.667.333-1 1-1 .722.418 1.222 1.084 1.5 2 .908-1.939 2.408-2.939 4.5-3v-3z" fill="#c6c6c7"/><path d="m450.5 847.5c-3.474 1.025-7.14 1.692-11 2 3.345-1.717 7.011-2.384 11-2z" fill="#9f9f9e"/><path d="M707.5 845.5c.543.06.876.393 1 1-1.241 2.644-3.241 3.477-6 2.5.556-.383.889-.883 1-1.5l4-2z" fill="#191813"/><path d="M696.5 847.5c-.17 1.322.163 2.489 1 3.5-1.333.667-2.667.667-4 0 1.473-.71 2.14-1.876 2-3.5.333-4 .667-4 1 0z" fill="#f9f8f0"/><path d="M695.5 847.5c.14 1.624-.527 2.79-2 3.5 1.333.667 2.667.667 4 0-.837-1.011-1.17-2.178-1-3.5h5c-1.682 3.904-4.682 5.571-9 5-.734-1.208-1.067-2.541-1-4 1.068-.934 2.401-1.268 4-1z" fill="#43433e"/><path d="M379.5 852.5c.667 0 1 .333 1 1-1.983-.343-3.317.324-4 2-2.639-1.206-3.472-3.206-2.5-6 1.346 1.842 3.179 2.842 5.5 3z" fill="#777571"/><path d="M403.5 853.5c-5.934 1.995-11.934 2.329-18 1l18-1z" fill="#7f7652"/><path d="M376.5 855.5c6.677 2.571 13.677 3.571 21 3-4.816 1.15-9.816 1.316-15 .5-2.525-.424-4.525-1.59-6-3.5z" fill="#757675"/></svg>