<?xml version="1.0" encoding="utf-8"?>
<svg version="1.1" xmlns="http://www.w3.org/2000/svg" width="348" height="528">
  <path d="M 222.87 3.039 C 225.347 3.94 226.244 4.762 227.932 6.789 C 229.143 9.504 229.143 9.504 230.307 12.726 C 231.87 17.015 233.537 21.212 235.339 25.406 C 238.02 31.814 240.097 38.317 242.057 44.976 C 242.433 46.237 242.808 47.497 243.195 48.795 C 247.076 61.927 250.578 75.165 254.038 88.413 C 254.476 90.079 254.915 91.745 255.354 93.41 C 255.567 94.217 255.78 95.023 255.999 95.854 C 257.35 100.883 258.921 105.783 260.655 110.691 C 262.958 117.428 264.018 123.839 264.62 130.914 C 264.734 132.103 264.848 133.293 264.965 134.518 C 266.145 147.225 267.117 159.961 267.817 172.704 C 267.898 174.161 267.982 175.618 268.068 177.075 C 268.756 188.911 268.979 200.715 268.909 212.568 C 268.885 217.219 268.888 221.869 268.887 226.52 C 268.885 230.472 268.864 234.422 268.806 238.374 C 268.496 260.63 271.415 279.175 278.773 300.172 C 280.302 304.942 281.325 309.749 282.304 314.656 C 283.107 318.66 284.12 322.585 285.194 326.523 C 285.39 327.253 285.585 327.984 285.787 328.736 C 286.394 331.004 287.007 333.272 287.62 335.539 C 288.243 337.849 288.866 340.159 289.485 342.471 C 289.867 343.894 290.251 345.316 290.637 346.738 C 291.932 351.564 291.932 351.564 291.932 353.789 C 292.82 353.629 292.82 353.629 293.725 353.465 C 300.209 352.481 300.209 352.481 303.87 354.039 C 306.921 356.628 307.88 358.216 308.245 362.226 C 307.932 365.789 307.932 365.789 306.432 367.726 C 304.45 370.452 304.958 372.498 305.061 375.754 C 304.83 379.402 303.431 381.228 300.932 383.789 C 298.163 384.587 295.851 384.692 292.932 384.789 C 292.623 386.645 292.623 386.645 292.307 388.539 C 291.443 391.921 290.933 392.789 288.307 395.351 C 284.97 396.773 282.63 397.32 279.026 396.676 C 274.757 394.868 271.922 391.221 268.932 387.789 C 268.272 387.129 267.612 386.469 266.932 385.789 C 266.128 386.449 265.324 387.109 264.495 387.789 C 260.478 390.464 256.615 390.512 251.932 389.789 C 248.87 388.476 248.87 388.476 246.932 386.789 C 246.932 385.799 246.932 384.809 246.932 383.789 C 245.612 384.119 244.292 384.449 242.932 384.789 C 242.938 385.639 242.943 386.488 242.948 387.363 C 242.976 395.812 242.807 404.234 242.495 412.676 C 242.451 413.939 242.406 415.203 242.36 416.505 C 242.22 420.496 242.077 424.486 241.932 428.476 C 241.788 432.478 241.645 436.479 241.504 440.48 C 241.417 442.956 241.328 445.431 241.237 447.906 C 241.121 451.2 241.021 454.494 240.932 457.789 C 240.887 459.363 240.887 459.363 240.84 460.969 C 240.823 461.952 240.806 462.935 240.788 463.948 C 240.77 464.814 240.752 465.679 240.734 466.57 C 241.031 469.891 242.596 471.521 244.932 473.789 C 247.038 477.135 247.303 480.133 247.557 484.039 C 247.632 485.117 247.707 486.194 247.784 487.305 C 247.858 488.534 247.858 488.534 247.932 489.789 C 248.592 489.789 249.252 489.789 249.932 489.789 C 249.057 496.539 249.057 496.539 247.932 498.789 C 247.272 498.789 246.612 498.789 245.932 498.789 C 245.932 499.449 245.932 500.109 245.932 500.789 C 237.166 505.399 227.9 505.076 218.264 504.995 C 215.976 504.976 213.688 504.974 211.399 504.975 C 200.228 504.937 200.228 504.937 197.932 503.789 C 196.309 503.662 194.684 503.561 193.057 503.476 C 189.653 503.163 188.248 503.018 185.432 500.976 C 181.478 495.21 180.861 489.731 180.932 482.789 C 181.767 478.601 183.297 475.589 185.951 472.247 C 188.47 467.852 188.608 464.531 188.725 459.555 C 188.762 458.655 188.798 457.756 188.835 456.829 C 188.948 453.899 189.034 450.97 189.12 448.039 C 189.192 446.02 189.267 444.001 189.342 441.982 C 189.528 436.892 189.691 431.802 189.844 426.711 C 189.928 423.923 190.017 421.135 190.108 418.347 C 190.416 408.828 190.691 399.31 190.932 389.789 C 182.022 389.789 173.112 389.789 163.932 389.789 C 163.963 396.069 163.963 396.069 163.995 402.476 C 164.019 412.928 163.836 423.344 163.432 433.789 C 163.304 437.341 163.178 440.894 163.053 444.446 C 162.974 446.625 162.892 448.804 162.805 450.983 C 162.696 453.877 162.622 456.769 162.557 459.664 C 162.5 460.911 162.5 460.911 162.442 462.184 C 162.367 467.477 163.448 470.146 166.779 474.239 C 168.349 476.349 168.625 478.128 168.745 480.726 C 168.817 481.885 168.817 481.885 168.89 483.066 C 168.904 483.635 168.918 484.203 168.932 484.789 C 169.592 484.789 170.252 484.789 170.932 484.789 C 172.577 491.23 170.987 495.007 167.932 500.789 C 166.942 500.789 165.952 500.789 164.932 500.789 C 164.932 501.449 164.932 502.109 164.932 502.789 C 159.887 504.439 155.373 505.086 150.05 505.055 C 149.314 505.057 148.577 505.058 147.819 505.06 C 146.268 505.062 144.716 505.058 143.165 505.05 C 140.835 505.039 138.505 505.05 136.175 505.062 C 113.377 505.085 113.377 505.085 106.932 500.789 C 106.932 500.129 106.932 499.469 106.932 498.789 C 106.272 498.789 105.612 498.789 104.932 498.789 C 101.591 493.389 102.366 486.891 102.932 480.789 C 104.116 476.977 105.858 474.021 108.473 471.022 C 110.253 468.298 110.354 466.642 110.444 463.406 C 110.48 462.333 110.515 461.259 110.552 460.153 C 110.586 458.426 110.586 458.426 110.62 456.664 C 110.67 454.889 110.67 454.889 110.721 453.079 C 111.038 440.651 111.033 428.22 110.932 415.789 C 110.378 416.294 109.824 416.8 109.253 417.32 C 108.528 417.97 107.804 418.62 107.057 419.289 C 106.338 419.939 105.619 420.588 104.878 421.258 C 102.932 422.789 102.932 422.789 100.932 422.789 C 100.932 423.449 100.932 424.109 100.932 424.789 C 92.662 429.947 84.394 432.752 74.932 434.789 C 73.914 435.016 72.896 435.243 71.847 435.476 C 63.498 436.991 55.084 437.057 46.62 437.164 C 45.415 437.19 44.21 437.216 42.969 437.243 C 36.248 437.256 29.441 437.141 23.932 432.789 C 23.201 430.65 23.201 430.65 22.932 428.789 C 22.075 428.619 21.218 428.449 20.335 428.273 C 8.295 425.722 8.295 425.722 2.932 421.789 C 0.329 417.62 0.363 413.566 0.932 408.789 C 2.307 405.726 2.307 405.726 3.932 403.789 C 4.592 403.789 5.252 403.789 5.932 403.789 C 5.97 403.209 6.007 402.629 6.046 402.031 C 6.472 396.972 7.304 393.246 9.932 388.789 C 10.592 388.789 11.252 388.789 11.932 388.789 C 11.932 388.129 11.932 387.469 11.932 386.789 C 12.922 386.789 13.912 386.789 14.932 386.789 C 14.932 386.129 14.932 385.469 14.932 384.789 C 19.342 383.687 23.416 383.712 27.932 383.789 C 27.932 383.129 27.932 382.469 27.932 381.789 C 28.592 381.789 29.252 381.789 29.932 381.789 C 29.932 381.129 29.932 380.469 29.932 379.789 C 30.592 379.789 31.252 379.789 31.932 379.789 C 31.932 379.129 31.932 378.469 31.932 377.789 C 32.922 377.789 33.912 377.789 34.932 377.789 C 34.932 377.129 34.932 376.469 34.932 375.789 C 37.242 375.459 39.552 375.129 41.932 374.789 C 43.088 368.695 42.84 366.361 39.932 360.789 C 40.001 357.359 40.561 355.414 42.307 352.476 C 46.491 349.787 51.052 349.957 55.932 349.789 C 58.639 342.923 60.74 335.933 62.807 328.851 C 63.161 327.65 63.515 326.449 63.879 325.211 C 65.382 320.102 66.876 314.991 68.354 309.875 C 70.442 302.666 72.659 295.526 75.057 288.414 C 75.8 286.183 76.541 283.951 77.282 281.719 C 77.828 280.099 78.401 278.488 78.979 276.879 C 80.688 271.664 81.119 266.704 81.085 261.246 C 81.082 260.446 81.079 259.646 81.076 258.822 C 80.958 245.178 80.357 231.538 79.816 217.905 C 79.685 214.596 79.56 211.286 79.441 207.976 C 78.804 190.317 78.022 172.77 75.914 155.214 C 74.128 140.112 74.928 127.758 80.87 113.726 C 83.191 108.159 85.362 102.619 87.219 96.879 C 88.28 93.772 89.619 90.796 90.932 87.789 C 91.884 85.293 92.823 82.796 93.745 80.289 C 95.995 74.229 98.331 68.212 100.756 62.22 C 102.338 58.307 103.838 54.371 105.307 50.414 C 110.899 35.877 118.225 22.294 125.932 8.789 C 126.592 8.789 127.252 8.789 127.932 8.789 C 127.932 8.129 127.932 7.469 127.932 6.789 C 129.582 6.789 131.232 6.789 132.932 6.789 C 133.128 7.559 133.324 8.328 133.526 9.121 C 135.837 17.994 138.352 26.803 140.932 35.601 C 141.264 36.745 141.596 37.889 141.938 39.068 C 143.69 44.997 145.629 50.73 147.995 56.441 C 149.528 60.28 150.725 64.213 151.932 68.164 C 152.446 69.819 152.96 71.474 153.475 73.129 C 153.722 73.923 153.969 74.717 154.223 75.535 C 155.478 79.524 156.821 83.483 158.171 87.441 C 158.853 89.545 159.428 91.637 159.932 93.789 C 160.922 93.459 161.912 93.129 162.932 92.789 C 164.485 92.643 166.042 92.542 167.6 92.473 C 168.493 92.431 169.386 92.389 170.306 92.346 C 171.234 92.306 172.163 92.267 173.12 92.226 C 174.06 92.183 175.001 92.14 175.97 92.096 C 178.29 91.99 180.611 91.888 182.932 91.789 C 183.278 90.657 183.623 89.525 183.979 88.359 C 186.301 81.402 189.278 74.71 192.183 67.98 C 193.17 65.692 194.151 63.401 195.132 61.109 C 198.217 53.922 201.373 46.783 204.722 39.715 C 207.142 34.596 209.302 29.486 211.057 24.101 C 211.542 22.68 212.029 21.26 212.518 19.84 C 212.753 19.16 212.987 18.48 213.228 17.78 C 218.635 2.493 218.635 2.493 222.87 3.039 Z" fill="#413F64"/>
  <path d="M 165.105 192.752 C 165.6 193.742 165.6 193.742 166.105 194.752 C 161.337 206.985 151.792 215.948 141.396 223.493 C 138.695 225.457 136.985 226.932 135.105 229.752 C 134.459 235.029 134.225 240.027 136.668 244.815 C 142.765 249.661 148.401 250.157 155.918 250.252 C 166.552 250.557 166.552 250.557 171.105 252.315 C 182.836 256.573 201.216 254.98 212.48 250.065 C 220.336 245.608 224.139 238.01 227.105 229.752 C 228.274 225.448 229.25 221.129 230.105 216.752 C 231.168 216.775 232.23 216.799 233.324 216.823 C 243.475 216.981 251.32 216.536 260.441 211.557 C 262.105 210.752 262.105 210.752 264.105 210.752 C 265.005 221.803 265.24 232.759 265.203 243.842 C 265.201 245.525 265.2 247.207 265.199 248.89 C 265.195 253.264 265.185 257.638 265.174 262.013 C 265.164 266.498 265.159 270.984 265.154 275.469 C 265.144 284.23 265.126 292.991 265.105 301.752 C 262.63 302.247 262.63 302.247 260.105 302.752 C 257.032 310.856 255.16 319.825 257.937 328.287 C 259.328 331.158 260.848 333.495 263.105 335.752 C 263.364 337.748 263.364 337.748 263.371 340.19 C 263.374 341.086 263.376 341.982 263.379 342.905 C 263.371 343.844 263.363 344.784 263.355 345.752 C 263.363 346.661 263.371 347.57 263.379 348.506 C 263.35 358.736 262.081 371.359 254.871 379.307 C 244.659 387.667 231.919 388.925 219.262 389.865 C 218.139 389.95 217.016 390.034 215.86 390.121 C 203.977 390.939 192.114 391.02 180.207 390.958 C 176.579 390.94 172.952 390.938 169.324 390.938 C 152.855 390.914 136.384 390.764 120.043 388.502 C 119.198 388.406 118.353 388.309 117.482 388.209 C 107.774 386.879 100.337 382.252 94.105 374.752 C 91.545 371.349 89.422 368.267 88.543 364.065 C 89.105 361.752 89.105 361.752 90.918 359.502 C 95.845 353.308 96.616 346.014 96.48 338.315 C 96.471 337.484 96.461 336.654 96.452 335.798 C 96.224 326.556 94.784 319.431 88.105 312.752 C 87.115 312.092 86.125 311.432 85.105 310.752 C 84.303 305.869 84.437 301.176 86.543 296.69 C 87.058 296.05 87.574 295.411 88.105 294.752 C 90.668 289.627 89.963 281.415 88.246 276.084 C 87.094 273.793 85.936 271.583 84.105 269.752 C 84.017 266.722 83.99 263.716 84.008 260.686 C 84.009 259.777 84.01 258.869 84.012 257.932 C 84.018 255.018 84.03 252.104 84.043 249.19 C 84.048 247.219 84.052 245.248 84.056 243.278 C 84.068 238.436 84.085 233.594 84.105 228.752 C 85.093 228.496 86.081 228.24 87.099 227.976 C 110.323 222.083 110.323 222.083 129.918 208.94 C 133.628 206.394 135.794 206.273 140.23 205.815 C 149.03 204.888 157.443 202.346 163.355 195.377 C 163.933 194.511 164.51 193.645 165.105 192.752 Z" fill="#8CC5EA"/>
  <path d="M 268.931 203.708 C 268.921 204.486 268.912 205.265 268.902 206.067 C 267.337 254.816 267.337 254.816 278.78 301.624 C 280.405 305.977 281.256 310.386 282.149 314.937 C 283.023 319.149 284.08 323.287 285.193 327.442 C 285.39 328.181 285.588 328.92 285.791 329.681 C 286.398 331.94 287.008 334.199 287.619 336.458 C 288.242 338.768 288.865 341.078 289.484 343.389 C 289.866 344.812 290.249 346.235 290.636 347.656 C 291.931 352.483 291.931 352.483 291.931 354.708 C 292.819 354.547 292.819 354.547 293.724 354.383 C 300.208 353.4 300.208 353.4 303.869 354.958 C 306.92 357.546 307.879 359.134 308.244 363.145 C 307.931 366.708 307.931 366.708 306.431 368.645 C 304.449 371.37 304.957 373.417 305.06 376.672 C 304.829 380.32 303.43 382.147 300.931 384.708 C 298.162 385.506 295.85 385.61 292.931 385.708 C 292.622 387.564 292.622 387.564 292.306 389.458 C 291.441 392.839 290.931 393.708 288.306 396.27 C 284.969 397.692 282.629 398.239 279.025 397.594 C 274.756 395.786 271.921 392.139 268.931 388.708 C 268.271 388.048 267.611 387.388 266.931 386.708 C 266.127 387.368 265.322 388.028 264.494 388.708 C 260.476 391.383 256.613 391.431 251.931 390.708 C 248.869 389.395 248.869 389.395 246.931 387.708 C 246.931 386.718 246.931 385.728 246.931 384.708 C 245.611 385.038 244.291 385.368 242.931 385.708 C 242.936 386.557 242.941 387.407 242.946 388.282 C 242.975 396.73 242.806 405.152 242.494 413.594 C 242.449 414.858 242.405 416.122 242.359 417.424 C 242.219 421.414 242.075 425.405 241.931 429.395 C 241.787 433.396 241.644 437.397 241.503 441.399 C 241.416 443.874 241.327 446.35 241.236 448.825 C 241.12 452.119 241.02 455.413 240.931 458.708 C 240.885 460.282 240.885 460.282 240.838 461.887 C 240.821 462.871 240.804 463.854 240.787 464.867 C 240.769 465.732 240.751 466.597 240.733 467.489 C 241.03 470.81 242.594 472.44 244.931 474.708 C 247.036 478.053 247.301 481.051 247.556 484.958 C 247.631 486.035 247.706 487.113 247.783 488.223 C 247.856 489.453 247.856 489.453 247.931 490.708 C 248.591 490.708 249.251 490.708 249.931 490.708 C 249.056 497.458 249.056 497.458 247.931 499.708 C 247.271 499.708 246.611 499.708 245.931 499.708 C 245.931 500.368 245.931 501.028 245.931 501.708 C 237.165 506.318 227.898 505.994 218.263 505.913 C 215.974 505.895 213.686 505.893 211.398 505.893 C 200.227 505.855 200.227 505.855 197.931 504.708 C 196.308 504.58 194.682 504.48 193.056 504.395 C 189.651 504.081 188.247 503.937 185.431 501.895 C 181.477 496.128 180.86 490.649 180.931 483.708 C 181.766 479.519 183.296 476.508 185.949 473.165 C 188.468 468.771 188.607 465.45 188.724 460.473 C 188.76 459.574 188.796 458.674 188.833 457.748 C 188.946 454.818 189.033 451.888 189.119 448.958 C 189.191 446.938 189.265 444.919 189.341 442.9 C 189.526 437.81 189.689 432.72 189.843 427.629 C 189.927 424.841 190.016 422.053 190.106 419.266 C 190.415 409.747 190.69 400.228 190.931 390.708 C 182.021 390.708 173.111 390.708 163.931 390.708 C 163.962 396.988 163.962 396.988 163.994 403.395 C 164.018 413.846 163.834 424.263 163.431 434.708 C 163.303 438.26 163.176 441.812 163.051 445.365 C 162.973 447.544 162.89 449.723 162.803 451.902 C 162.695 454.795 162.62 457.688 162.556 460.583 C 162.499 461.83 162.499 461.83 162.441 463.102 C 162.366 468.396 163.447 471.064 166.778 475.158 C 168.348 477.268 168.624 479.046 168.744 481.645 C 168.815 482.803 168.815 482.803 168.888 483.985 C 168.902 484.553 168.916 485.122 168.931 485.708 C 169.591 485.708 170.251 485.708 170.931 485.708 C 172.576 492.149 170.986 495.925 167.931 501.708 C 166.941 501.708 165.951 501.708 164.931 501.708 C 164.931 502.368 164.931 503.028 164.931 503.708 C 159.885 505.358 155.371 506.005 150.048 505.973 C 149.312 505.975 148.576 505.977 147.818 505.979 C 146.266 505.98 144.715 505.977 143.164 505.968 C 140.833 505.958 138.504 505.968 136.173 505.981 C 113.376 506.004 113.376 506.004 106.931 501.708 C 106.931 501.048 106.931 500.388 106.931 499.708 C 106.271 499.708 105.611 499.708 104.931 499.708 C 101.59 494.308 102.365 487.809 102.931 481.708 C 104.114 477.896 105.857 474.939 108.472 471.941 C 110.252 469.217 110.353 467.561 110.443 464.325 C 110.478 463.251 110.514 462.178 110.55 461.072 C 110.584 459.345 110.584 459.345 110.619 457.583 C 110.669 455.808 110.669 455.808 110.72 453.997 C 111.036 441.57 111.032 429.138 110.931 416.708 C 110.377 417.213 109.823 417.718 109.251 418.239 C 108.527 418.889 107.803 419.538 107.056 420.208 C 106.337 420.857 105.618 421.507 104.876 422.176 C 102.931 423.708 102.931 423.708 100.931 423.708 C 100.931 424.368 100.931 425.028 100.931 425.708 C 92.661 430.866 84.393 433.67 74.931 435.708 C 73.913 435.934 72.894 436.161 71.845 436.395 C 63.497 437.909 55.083 437.976 46.619 438.083 C 45.414 438.109 44.209 438.135 42.967 438.162 C 36.246 438.175 29.44 438.06 23.931 433.708 C 23.199 431.568 23.199 431.568 22.931 429.708 C 22.074 429.537 21.217 429.367 20.333 429.192 C 8.294 426.64 8.294 426.64 2.931 422.708 C 0.328 418.539 0.362 414.485 0.931 409.708 C 2.306 406.645 2.306 406.645 3.931 404.708 C 4.591 404.708 5.251 404.708 5.931 404.708 C 5.968 404.128 6.006 403.547 6.044 402.95 C 6.47 397.891 7.302 394.165 9.931 389.708 C 10.591 389.708 11.251 389.708 11.931 389.708 C 11.931 389.048 11.931 388.388 11.931 387.708 C 12.921 387.708 13.911 387.708 14.931 387.708 C 14.931 387.048 14.931 386.388 14.931 385.708 C 19.34 384.605 23.415 384.631 27.931 384.708 C 27.931 384.048 27.931 383.388 27.931 382.708 C 28.591 382.708 29.251 382.708 29.931 382.708 C 29.931 382.048 29.931 381.388 29.931 380.708 C 30.591 380.708 31.251 380.708 31.931 380.708 C 31.931 380.048 31.931 379.388 31.931 378.708 C 32.921 378.708 33.911 378.708 34.931 378.708 C 34.931 378.048 34.931 377.388 34.931 376.708 C 37.241 376.378 39.551 376.048 41.931 375.708 C 43.087 369.613 42.838 367.279 39.931 361.708 C 40 358.277 40.559 356.333 42.306 353.395 C 46.489 350.706 51.051 350.876 55.931 350.708 C 56.385 349.491 56.839 348.274 57.306 347.02 C 58.476 343.9 59.677 340.795 60.931 337.708 C 62.251 338.038 63.571 338.368 64.931 338.708 C 65.039 337.408 65.148 336.109 65.259 334.77 C 65.81 329.837 67.097 325.396 68.681 320.708 C 69.227 319.039 69.771 317.37 70.314 315.7 C 70.586 314.867 70.859 314.034 71.139 313.175 C 72.346 309.414 73.455 305.626 74.556 301.833 C 74.961 300.45 75.366 299.067 75.771 297.684 C 76.351 295.699 76.929 293.713 77.502 291.726 C 78.034 289.885 78.576 288.046 79.119 286.208 C 79.422 285.166 79.724 284.124 80.037 283.051 C 80.931 280.708 80.931 280.708 82.931 279.708 C 83.603 290.216 84.011 300.697 84.107 311.227 C 84.119 312.309 84.131 313.391 84.143 314.506 C 84.192 318.973 84.239 323.439 84.257 327.906 C 84.329 353.769 84.329 353.769 96.884 375.77 C 101.96 380.419 107.009 383.69 113.931 384.708 C 114.261 384.048 114.591 383.388 114.931 382.708 C 115.949 382.84 116.968 382.973 118.017 383.11 C 119.447 383.289 120.876 383.467 122.306 383.645 C 123.296 383.776 123.296 383.776 124.306 383.909 C 140.721 385.923 157.276 385.894 173.787 385.893 C 177.397 385.895 181.008 385.913 184.619 385.932 C 196.429 385.962 208.18 385.728 219.962 384.883 C 220.992 384.814 222.021 384.745 223.082 384.673 C 233.881 383.801 248.193 382.148 255.814 373.594 C 262.599 363.844 263.121 353.542 263.244 342.02 C 263.287 340.635 263.287 340.635 263.331 339.221 C 263.384 333.607 262.986 330.883 258.931 326.708 C 255.608 320.208 255.98 311.646 257.681 304.645 C 259.019 301.501 260.212 299.768 262.931 297.708 C 263.921 297.708 264.911 297.708 265.931 297.708 C 265.823 288.075 265.71 278.442 265.592 268.809 C 265.537 264.335 265.484 259.86 265.434 255.385 C 265.385 251.054 265.333 246.723 265.278 242.391 C 265.258 240.752 265.239 239.113 265.222 237.474 C 265.197 235.15 265.168 232.825 265.136 230.501 C 265.123 229.399 265.123 229.399 265.109 228.276 C 265.044 224.533 264.886 220.821 264.583 217.089 C 264.524 216.35 264.466 215.611 264.405 214.85 C 264.234 212.819 264.041 210.791 263.846 208.764 C 263.874 207.755 263.902 206.747 263.931 205.708 C 266.931 203.708 266.931 203.708 268.931 203.708 Z" fill="#6AA0C7"/>
  <path d="M 187.352 288.723 C 188.093 288.715 188.833 288.707 189.597 288.699 C 205.003 288.572 220.999 289.773 232.727 300.91 C 243.137 312.18 246.065 324.925 245.805 340.055 C 245.799 341.324 245.793 342.593 245.788 343.9 C 245.769 347.226 245.733 350.551 245.689 353.877 C 245.647 357.29 245.629 360.703 245.609 364.115 C 245.566 370.777 245.499 377.437 245.414 384.098 C 240.897 385.663 236.732 386.59 231.977 387.16 C 230.72 387.316 229.463 387.472 228.168 387.633 C 226.584 387.795 224.999 387.949 223.414 388.098 C 222.457 388.189 221.499 388.28 220.512 388.374 C 208.471 389.347 196.418 389.249 184.345 389.228 C 180.62 389.223 176.895 389.228 173.17 389.235 C 154.389 389.242 136.037 388.526 117.414 386.098 C 117.364 379.982 117.328 373.867 117.304 367.751 C 117.294 365.677 117.281 363.604 117.263 361.531 C 116.912 318.819 116.912 318.819 131.977 302.285 C 132.781 301.563 133.585 300.842 134.414 300.098 C 135.157 299.417 135.899 298.737 136.664 298.035 C 142.934 293.618 149.746 291.389 157.289 290.348 C 158.155 290.227 159.02 290.106 159.912 289.982 C 169.038 288.886 178.173 288.771 187.352 288.723 Z" fill="#D4EAFA"/>
  <path d="M 239.802 402.393 C 239.778 403.277 239.755 404.161 239.73 405.072 C 239.512 413.428 239.318 421.784 239.152 430.141 C 239.066 434.437 238.97 438.732 238.852 443.027 C 238.739 447.177 238.651 451.326 238.58 455.476 C 238.549 457.055 238.508 458.634 238.459 460.213 C 238.193 468.843 238.04 475.445 243.802 482.393 C 245.921 487.235 246.306 491.182 245.802 496.393 C 243.055 500.568 239.563 501.408 234.802 502.393 C 232.802 502.422 230.802 502.426 228.802 502.393 C 228.788 501.296 228.774 500.199 228.759 499.068 C 228.712 497.614 228.664 496.159 228.615 494.705 C 228.609 493.984 228.603 493.263 228.597 492.52 C 228.422 488.25 228.128 486.778 225.251 483.373 C 224.443 482.72 223.635 482.066 222.802 481.393 C 223.457 482.22 224.112 483.048 224.786 483.9 C 227.224 487.556 227.266 490.988 227.052 495.268 C 226.97 497.619 226.887 499.97 226.802 502.393 C 219.212 502.393 211.622 502.393 203.802 502.393 C 203.266 488.196 203.266 488.196 205.802 484.518 C 206.462 483.816 207.122 483.115 207.802 482.393 C 204.356 485.223 202.931 486.708 202.095 491.162 C 202.036 492.509 202.001 493.857 201.99 495.205 C 201.964 495.898 201.939 496.591 201.913 497.305 C 201.855 499 201.826 500.696 201.802 502.393 C 190.995 502.206 190.995 502.206 187.052 499.518 C 184.886 494.101 184.724 488.516 186.638 482.971 C 188.086 479.987 189.448 477.747 191.802 475.393 C 192.096 473.393 192.096 473.393 192.033 471.104 C 192.031 470.244 192.029 469.384 192.027 468.498 C 192.014 467.597 192.002 466.696 191.99 465.768 C 191.989 464.89 191.988 464.012 191.988 463.107 C 191.952 457.786 191.569 452.658 190.802 447.393 C 191.792 447.393 192.782 447.393 193.802 447.393 C 193.797 446.73 193.792 446.066 193.786 445.383 C 193.693 431.679 193.824 418.065 194.802 404.393 C 198.799 404.101 202.797 403.817 206.795 403.538 C 208.804 403.397 210.812 403.25 212.82 403.104 C 214.125 403.013 215.43 402.923 216.775 402.83 C 218.542 402.704 218.542 402.704 220.345 402.576 C 226.82 402.225 233.321 402.359 239.802 402.393 Z" fill="#D4EBF9"/>
  <path d="M 115.192 404.002 C 129.712 404.662 144.232 405.322 159.192 406.002 C 159.146 411.07 159.099 416.137 159.052 421.358 C 159.031 424.571 159.012 427.784 158.997 430.997 C 158.973 436.095 158.945 441.193 158.89 446.291 C 158.847 450.402 158.823 454.512 158.813 458.623 C 158.805 460.19 158.791 461.758 158.769 463.325 C 158.74 465.523 158.736 467.719 158.738 469.917 C 158.725 471.792 158.725 471.792 158.711 473.706 C 159.28 477.604 160.558 479.147 163.192 482.002 C 165.651 487.167 166.234 493.38 165.192 499.002 C 161.441 502.649 156.644 503.957 151.47 504.053 C 150.718 504.036 149.967 504.02 149.192 504.002 C 149.136 502.465 149.136 502.465 149.079 500.897 C 149.013 499.536 148.947 498.176 148.88 496.815 C 148.846 495.805 148.846 495.805 148.811 494.774 C 148.577 490.403 147.857 487.497 145.192 484.002 C 144.202 483.507 144.202 483.507 143.192 483.002 C 143.852 483.869 144.512 484.735 145.192 485.627 C 148.507 491.265 147.433 497.693 147.192 504.002 C 139.602 504.002 132.012 504.002 124.192 504.002 C 124.11 501.651 124.027 499.3 123.942 496.877 C 123.906 496.149 123.869 495.42 123.832 494.67 C 123.743 489.401 125.046 486.979 128.192 483.002 C 123.063 488 122.084 489.988 121.63 497.127 C 121.546 498.409 121.462 499.69 121.376 501.01 C 121.315 501.998 121.255 502.985 121.192 504.002 C 111.074 503.653 111.074 503.653 107.567 501.065 C 104.693 496.754 104.591 493.096 105.192 488.002 C 106.481 484.358 108.183 481.155 110.733 478.242 C 112.557 475.442 112.615 473.666 112.701 470.339 C 112.755 468.63 112.755 468.63 112.811 466.887 C 112.837 465.658 112.862 464.429 112.888 463.163 C 112.925 461.889 112.963 460.616 113.002 459.305 C 113.1 455.915 113.187 452.525 113.267 449.135 C 113.382 444.397 113.519 439.659 113.654 434.921 C 113.724 432.404 113.79 429.886 113.851 427.368 C 113.881 426.201 113.911 425.033 113.943 423.831 C 113.967 422.824 113.991 421.816 114.016 420.779 C 114.277 415.179 114.762 409.592 115.192 404.002 Z" fill="#D4EAF9"/>
  <path d="M 153.236 117.925 C 163.386 124.965 165.986 137.595 168.075 148.987 C 168.72 154.532 168.844 160.035 168.916 165.612 C 168.973 167.274 168.973 167.274 169.031 168.97 C 169.139 179.037 166.479 189.047 159.108 196.456 C 151.39 202.781 143.705 203.895 133.929 203.402 C 125.26 202.623 119.038 198.298 113.214 192.159 C 103.427 179.932 103.121 164.805 104.287 149.925 C 106.261 138.448 112.118 127.684 121.468 120.362 C 131.08 114.067 142.916 112.142 153.236 117.925 Z" fill="#FBFBFB" style=""/>
  <path d="M 43.802 375.174 C 45.802 377.174 47.802 379.174 49.802 381.174 C 52.13 381.542 54.463 381.876 56.802 382.174 C 56.864 383.226 56.925 384.278 56.989 385.361 C 57.432 389.29 57.432 389.29 60.313 391.4 C 63.515 394.969 63.46 397.798 63.427 402.361 C 63.692 411.879 64.611 419.485 71.204 426.799 C 74.496 429.632 77.834 430.522 82.052 431.299 C 82.944 431.466 83.836 431.634 84.755 431.807 C 85.43 431.928 86.106 432.049 86.802 432.174 C 83.288 434.517 80.062 435.039 75.989 435.736 C 75.29 435.862 74.591 435.988 73.87 436.117 C 71.849 436.478 69.826 436.83 67.802 437.174 C 66.861 437.348 65.921 437.522 64.953 437.702 C 59.323 438.545 53.671 438.442 47.989 438.486 C 46.756 438.515 45.523 438.544 44.253 438.574 C 37.411 438.622 30.402 438.656 24.802 434.174 C 24.072 432.035 24.072 432.035 23.802 430.174 C 22.944 430.004 22.087 429.834 21.204 429.658 C 9.164 427.106 9.164 427.106 3.802 423.174 C 1.198 419.005 1.232 414.951 1.802 410.174 C 3.177 407.111 3.177 407.111 4.802 405.174 C 5.462 405.174 6.122 405.174 6.802 405.174 C 6.839 404.594 6.876 404.014 6.915 403.416 C 7.341 398.357 8.173 394.631 10.802 390.174 C 11.462 390.174 12.122 390.174 12.802 390.174 C 12.802 389.514 12.802 388.854 12.802 388.174 C 13.792 388.174 14.782 388.174 15.802 388.174 C 15.802 387.514 15.802 386.854 15.802 386.174 C 20.211 385.072 24.285 385.097 28.802 385.174 C 28.802 384.514 28.802 383.854 28.802 383.174 C 29.462 383.174 30.122 383.174 30.802 383.174 C 30.802 382.514 30.802 381.854 30.802 381.174 C 31.462 381.174 32.122 381.174 32.802 381.174 C 32.802 380.514 32.802 379.854 32.802 379.174 C 33.792 379.174 34.782 379.174 35.802 379.174 C 35.802 378.514 35.802 377.854 35.802 377.174 C 36.936 377.03 38.07 376.885 39.239 376.736 C 42.609 376.562 42.609 376.562 43.802 375.174 Z" fill="#413F64"/>
  <path d="M 63.802 339.369 C 68.203 340.009 72.309 341.04 76.552 342.369 C 78.245 342.895 78.245 342.895 79.974 343.432 C 82.802 344.369 82.802 344.369 84.802 345.369 C 85.456 347.621 86.024 349.897 86.552 352.182 C 88.597 360.419 91.234 369.412 97.677 375.307 C 99.802 377.369 99.802 377.369 100.364 379.994 C 99.802 382.369 99.802 382.369 98.302 384.182 C 94.804 385.843 91.552 386.215 87.802 385.369 C 85.052 382.807 85.052 382.807 82.802 380.369 C 80.034 380.515 78.985 381.186 77.02 383.146 C 76.453 383.859 75.886 384.572 75.302 385.307 C 73.016 388.169 71.262 390.051 67.802 391.369 C 64.599 391.209 63.048 390.544 60.427 388.682 C 58.802 386.369 58.802 386.369 58.802 383.432 C 59.911 380.034 61.408 377.994 63.802 375.369 C 62.791 375.864 61.78 376.359 60.739 376.869 C 56.982 378.47 53.907 378.843 49.802 378.369 C 47.802 377.307 47.802 377.307 46.802 375.369 C 46.923 371.966 47.202 369.401 48.927 366.432 C 51.833 364.785 54.54 365.185 57.802 365.369 C 57.802 364.379 57.802 363.389 57.802 362.369 C 55.914 362.833 55.914 362.833 53.989 363.307 C 53.281 363.481 52.574 363.655 51.845 363.834 C 50.145 364.279 48.469 364.813 46.802 365.369 C 44.802 363.369 44.802 363.369 44.552 359.869 C 44.802 356.369 44.802 356.369 46.802 354.369 C 51.471 353.828 56.255 354.196 60.802 355.369 C 60.74 354.07 60.74 354.07 60.677 352.744 C 60.807 349.215 61.584 346.664 62.802 343.369 C 63.151 342.04 63.493 340.708 63.802 339.369 Z" fill="#D4EAF9"/>
  <path d="M 145.921 137.634 C 149.572 140.068 150.722 142.975 151.604 147.22 C 152.724 155.765 152.644 162.316 147.608 169.509 C 144.862 171.34 143.133 171.213 139.921 170.634 C 136.253 167.436 134.022 164.077 133.683 159.22 C 133.32 145.266 133.32 145.266 137.921 138.634 C 140.762 137.214 142.776 137.32 145.921 137.634 Z" fill="#060606"/>
  <path d="M 223.216 38.978 C 225.154 39.189 225.154 39.189 227.216 39.978 C 232.367 47.025 235.675 60.396 235.216 68.978 C 234.394 68.773 233.571 68.569 232.724 68.357 C 225.885 66.707 219.239 65.438 212.216 64.978 C 212.755 59.097 215.16 54.392 217.716 49.166 C 218.132 48.295 218.549 47.424 218.978 46.527 C 222.054 40.14 222.054 40.14 223.216 38.978 Z" fill="#E8CB75"/>
  <path d="M 124.997 43.588 C 127.997 44.588 127.997 44.588 128.98 46.49 C 129.258 47.304 129.535 48.117 129.821 48.955 C 130.127 49.841 130.433 50.727 130.749 51.639 C 131.058 52.571 131.366 53.503 131.684 54.463 C 132.005 55.387 132.325 56.312 132.655 57.264 C 134.997 64.145 134.997 64.145 134.997 67.588 C 134.007 67.758 133.017 67.928 131.997 68.104 C 124.788 69.405 118.376 70.813 111.997 74.588 C 113.565 67.675 115.833 61.142 118.497 54.588 C 118.793 53.846 119.09 53.105 119.396 52.34 C 119.687 51.638 119.978 50.936 120.278 50.213 C 120.537 49.587 120.795 48.96 121.061 48.315 C 122.115 46.37 123.372 45.074 124.997 43.588 Z" fill="#E9CC75"/>
  <path d="M 208.495 144.932 C 209.428 144.921 210.36 144.909 211.321 144.897 C 216.338 144.919 219.85 145.045 223.932 148.307 C 223.359 151.175 223.071 152.169 220.932 154.307 C 216.119 155.937 210.953 155.531 205.932 155.557 C 204.935 155.578 203.937 155.599 202.909 155.62 C 201.947 155.625 200.986 155.63 199.995 155.635 C 199.12 155.645 198.244 155.654 197.343 155.664 C 194.468 155.239 193.09 154.204 190.932 152.307 C 191.057 150.495 191.057 150.495 191.932 148.307 C 197.275 144.708 202.293 144.855 208.495 144.932 Z" fill="#9495A2"/>
  <path d="M 227.811 194.576 C 237.764 187.536 240.313 174.906 242.362 163.514 C 242.994 157.969 243.116 152.466 243.186 146.889 C 243.242 145.227 243.242 145.227 243.299 143.531 C 243.405 133.464 240.797 123.454 233.569 116.045 C 226 109.72 218.464 108.606 208.878 109.099 C 200.377 109.878 194.276 114.203 188.565 120.342 C 178.967 132.569 178.667 147.696 179.811 162.576 C 181.747 174.053 187.49 184.817 196.659 192.139 C 206.084 198.434 217.691 200.359 227.811 194.576 Z" fill="#FBFBFB" style="transform-box: fill-box; transform-origin: 50% 50%;" transform="matrix(-1, 0, 0, -1, -0.000004, -0.000018)"/>
  <path style="fill: rgb(216, 216, 216); stroke: rgb(0, 0, 0); stroke-width: 0px;" d="M 136.271 95.73 C 123.83 97.561 115.798 106.86 110.848 111.809 C 110.178 112.479 99.235 116.264 96.788 113.818 C 95.225 112.255 93.663 110.693 92.101 109.131 C 91.599 108.629 90.727 99.182 91.431 97.749 C 93.238 94.071 96.721 90.605 99.466 87.706 C 102.653 84.339 106.428 83.768 112.856 79.671 C 116.255 77.504 119.807 77.886 125.578 74.985 C 129.189 73.17 141.331 73.126 143.36 75.155 C 144.029 75.825 145.709 76.108 146.379 76.777 C 150.923 81.321 159.189 86.231 151.689 93.731 C 150.35 95.071 145.354 92.895 143.655 93.731 C 141.689 94.699 141.185 93.891 138.038 95.217"/>
  <path style="fill: rgb(216, 216, 216); stroke: rgb(0, 0, 0); stroke-width: 0px; transform-box: fill-box; transform-origin: 50% 50%;" d="M 240.09 86.223 C 227.649 84.392 219.617 75.093 214.667 70.144 C 213.997 69.474 203.054 65.689 200.607 68.135 C 199.044 69.698 197.482 71.26 195.92 72.822 C 195.418 73.324 194.546 82.771 195.25 84.204 C 197.057 87.882 200.54 91.348 203.285 94.247 C 206.472 97.614 210.247 98.185 216.675 102.282 C 220.074 104.449 223.626 104.067 229.397 106.968 C 233.008 108.783 245.15 108.827 247.179 106.798 C 247.848 106.128 249.528 105.845 250.198 105.176 C 254.742 100.632 263.008 95.722 255.508 88.222 C 254.169 86.882 249.173 89.058 247.474 88.222 C 245.508 87.254 245.004 88.062 241.857 86.736" transform="matrix(-1, 0, 0, -1, 0.000038, -0.000022)"/>
  <path d="M 180.837 151.647 C 180.837 154.762 180.837 154.762 179.712 156.838 C 178.458 166.087 183.914 172.946 189.765 180.034 C 198.405 190.855 198.405 190.855 210.102 198.365 C 214.789 198.733 218.341 198.412 222.482 196.288 C 223.268 194.921 224.01 193.532 224.734 192.136 C 226.177 190.01 227.632 187.891 229.095 185.777 C 234.934 177.15 238.402 168.875 240.492 158.914 C 240.863 158.914 241.235 158.914 241.617 158.914 C 242.069 174.464 241.289 189.288 238.241 204.594 C 238.067 205.473 237.892 206.351 237.712 207.257 C 231.173 239.338 231.173 239.338 219.599 249.754 C 210.118 255.136 199.796 254.673 188.998 254.751 C 187.618 254.781 186.24 254.811 184.82 254.843 C 173.037 254.917 163.52 252.876 154.755 245.285 C 149.691 239.676 145.352 232.811 145.944 225.357 C 148.544 225.357 151.145 225.357 153.823 225.357 C 153.823 224.672 153.823 223.987 153.823 223.281 C 145.833 224.142 139.881 225.64 134.688 231.586 C 133.017 234.897 133.017 234.897 132.437 237.815 C 133.18 237.815 133.923 237.815 134.688 237.815 C 134.759 237.066 134.828 236.316 134.9 235.545 C 136.101 231.707 138.186 229.997 141.442 227.434 C 142.185 227.434 142.927 227.434 143.693 227.434 C 143.966 228.186 144.239 228.938 144.519 229.712 C 147.958 238.861 151.774 244.689 159.892 250.878 C 160.787 251.607 160.787 251.607 161.702 252.35 C 161.702 252.692 161.702 253.035 161.702 253.388 C 140.286 254.197 140.286 254.197 130.749 247.159 C 128.069 242.216 127.85 236.977 129.061 231.586 C 132.636 226.842 136.6 223.853 141.723 220.491 C 152.826 212.914 162.686 202.986 165.078 190.059 C 165.894 187.72 166.762 185.402 167.646 183.084 C 169.146 178.696 169.721 174.618 169.691 170.022 C 169.688 169.008 169.684 167.994 169.68 166.95 C 169.671 165.904 169.661 164.859 169.652 163.781 C 169.646 162.715 169.642 161.649 169.637 160.55 C 169.623 157.929 169.602 155.308 169.581 152.685 C 173.295 152.343 177.01 152 180.837 151.647 Z" fill="#ECCD75" style=""/>
  <path d="M 213.189 133.142 C 216.84 135.576 217.99 138.483 218.872 142.728 C 219.992 151.273 219.912 157.824 214.876 165.017 C 212.13 166.848 210.401 166.721 207.189 166.142 C 203.521 162.944 201.29 159.585 200.951 154.728 C 200.588 140.774 200.588 140.774 205.189 134.142 C 208.03 132.722 210.044 132.828 213.189 133.142 Z" fill="#060606" style="stroke-width: 1;"/>
  <path style="stroke-miterlimit: 1; stroke-width: 0px; stroke: rgb(43, 43, 64); fill: rgb(43, 43, 64);" d="M 239.328 149.546 C 231.968 145.147 229.313 147.802 220.263 148.419 C 209.86 149.129 198.374 148.093 188.107 149.773 C 183.481 150.529 177.957 153.76 179.378 159.248 C 181.755 168.432 184.397 173.539 190.173 181.584 C 192.552 184.897 195.27 187.991 198.213 190.834 C 216.217 208.232 227.592 190.712 234.964 175.267 C 237.658 169.62 241.029 151.938 237.719 149.095"/>
</svg>